<?xml version="1.0" encoding="UTF-8"?>
<svg id="layer1" xmlns="http://www.w3.org/2000/svg" width="1080" height="1080" viewBox="0 0 1080 1080">
  <path d="M752.017,766.027h-421.393c-60.135,0-109.059-48.924-109.059-109.059v-265.433c0-60.136,48.924-109.06,109.059-109.06h421.393c60.135,0,109.059,48.924,109.059,109.06v265.433c0,60.135-48.924,109.059-109.059,109.059ZM330.624,342.476c-27.051,0-49.059,22.008-49.059,49.06v265.433c0,27.051,22.008,49.059,49.059,49.059h421.393c27.051,0,49.059-22.008,49.059-49.059v-265.433c0-27.052-22.008-49.06-49.059-49.06h-421.393Z" fill="#fff"/>
  <path d="M540,879.396c-16.568,0-30-13.432-30-30v-113.369c0-16.568,13.432-30,30-30s30,13.432,30,30v113.369c0,16.568-13.432,30-30,30Z" fill="#fff"/>
  <path d="M618.194,879.396h-156.387c-16.568,0-30-13.432-30-30s13.432-30,30-30h156.387c16.568,0,30,13.432,30,30s-13.432,30-30,30Z" fill="#fff"/>
  <path d="M565.96,649.457h-175.563c-13.807,0-25-11.193-25-25v-209.422c0-13.807,11.193-25,25-25h175.563c13.807,0,25,11.193,25,25v209.422c0,13.807-11.193,25-25,25ZM415.397,599.457h125.563v-159.422h-125.563v159.422Z" fill="#fff"/>
  <path d="M692.244,669.511h-100.964c-13.807,0-25-11.193-25-25v-97.41c0-13.807,11.193-25,25-25h100.964c13.808,0,25,11.193,25,25v97.41c0,13.807-11.192,25-25,25ZM616.28,619.511h50.964v-47.41h-50.964v47.41Z" fill="#fff"/>
</svg>