<?xml version="1.0" encoding="UTF-8"?>
<svg id="layer1" xmlns="http://www.w3.org/2000/svg" width="1080" height="1080" viewBox="0 0 1080 1080">
  <path d="M817.114,978.184h-175.563c-13.807,0-25-11.193-25-25v-209.423c0-13.808,11.193-25,25-25h175.563c13.807,0,25,11.192,25,25v209.423c0,13.807-11.193,25-25,25ZM666.551,928.184h125.563v-159.423h-125.563v159.423Z" fill="#fff"/>
  <path d="M943.399,998.238h-100.964c-13.807,0-25-11.192-25-25v-97.411c0-13.807,11.193-25,25-25h100.964c13.808,0,25,11.193,25,25v97.411c0,13.808-11.192,25-25,25ZM867.435,948.238h50.964v-47.411h-50.964v47.411Z" fill="#fff"/>
  <path d="M662.502,670.398H241.111c-60.136,0-109.06-48.924-109.06-109.059v-265.433c0-60.136,48.924-109.06,109.06-109.06h421.392c60.135,0,109.059,48.924,109.059,109.06v265.433c0,60.135-48.924,109.059-109.059,109.059ZM241.111,246.847c-27.052,0-49.06,22.008-49.06,49.06v265.433c0,27.051,22.008,49.059,49.06,49.059h421.392c27.051,0,49.059-22.008,49.059-49.059v-265.433c0-27.052-22.008-49.06-49.059-49.06H241.111Z" fill="#fff"/>
  <path d="M450.487,783.767c-16.568,0-30-13.432-30-30v-113.369c0-16.568,13.432-30,30-30s30,13.432,30,30v113.369c0,16.568-13.432,30-30,30Z" fill="#fff"/>
  <path d="M528.68,783.767h-156.387c-16.568,0-30-13.432-30-30s13.432-30,30-30h156.387c16.568,0,30,13.432,30,30s-13.432,30-30,30Z" fill="#fff"/>
</svg>