<?xml version="1.0" encoding="UTF-8"?>
<svg id="layer1" xmlns="http://www.w3.org/2000/svg" width="1080" height="1080" viewBox="0 0 1080 1080">
  <path d="M662.502,670.398H241.111c-60.136,0-109.06-48.924-109.06-109.059v-265.433c0-60.136,48.924-109.06,109.06-109.06h421.392c60.135,0,109.059,48.924,109.059,109.06v265.433c0,60.135-48.924,109.059-109.059,109.059ZM241.111,246.847c-27.052,0-49.06,22.008-49.06,49.06v265.433c0,27.051,22.008,49.059,49.06,49.059h421.392c27.051,0,49.059-22.008,49.059-49.059v-265.433c0-27.052-22.008-49.06-49.059-49.06H241.111Z" fill="#fff"/>
  <path d="M450.487,783.767c-16.568,0-30-13.432-30-30v-113.369c0-16.568,13.432-30,30-30s30,13.432,30,30v113.369c0,16.568-13.432,30-30,30Z" fill="#fff"/>
  <path d="M528.68,783.767h-156.387c-16.568,0-30-13.432-30-30s13.432-30,30-30h156.387c16.568,0,30,13.432,30,30s-13.432,30-30,30Z" fill="#fff"/>
  <path d="M795.227,949.874h-156.405c-12.3,0-22.272-9.972-22.272-22.272v-186.569c0-12.301,9.972-22.272,22.272-22.272h156.405c12.3,0,22.272,9.971,22.272,22.272v186.569c0,12.3-9.972,22.272-22.272,22.272ZM661.095,905.33h111.861v-142.025h-111.861v142.025Z" fill="#fff"/>
  <path d="M907.73,967.739h-89.946c-12.3,0-22.272-9.971-22.272-22.272v-86.781c0-12.3,9.972-22.272,22.272-22.272h89.946c12.301,0,22.272,9.972,22.272,22.272v86.781c0,12.301-9.971,22.272-22.272,22.272ZM840.056,923.195h45.402v-42.237h-45.402v42.237Z" fill="#fff"/>
</svg>