<?xml version="1.0" encoding="UTF-8"?>
<svg id="layer1" xmlns="http://www.w3.org/2000/svg" width="1080" height="1080" viewBox="0 0 1080 1080">
  <path d="M752.017,766.027h-421.393c-60.135,0-109.059-48.924-109.059-109.059v-265.433c0-60.136,48.924-109.06,109.059-109.06h421.393c60.135,0,109.059,48.924,109.059,109.06v265.433c0,60.135-48.924,109.059-109.059,109.059ZM330.624,342.476c-27.051,0-49.059,22.008-49.059,49.06v265.433c0,27.051,22.008,49.059,49.059,49.059h421.393c27.051,0,49.059-22.008,49.059-49.059v-265.433c0-27.052-22.008-49.06-49.059-49.06h-421.393Z" fill="#fff"/>
  <path d="M540,879.396c-16.568,0-30-13.432-30-30v-113.369c0-16.568,13.432-30,30-30s30,13.432,30,30v113.369c0,16.568-13.432,30-30,30Z" fill="#fff"/>
  <path d="M618.194,879.396h-156.387c-16.568,0-30-13.432-30-30s13.432-30,30-30h156.387c16.568,0,30,13.432,30,30s-13.432,30-30,30Z" fill="#fff"/>
  <path d="M562.322,636.762h-154.147c-12.123,0-21.95-9.827-21.95-21.95v-183.876c0-12.123,9.827-21.95,21.95-21.95h154.147c12.123,0,21.95,9.827,21.95,21.95v183.876c0,12.123-9.827,21.95-21.95,21.95ZM430.125,592.862h110.247v-139.976h-110.247v139.976Z" fill="#fff"/>
  <path d="M673.201,654.369h-88.647c-12.123,0-21.95-9.827-21.95-21.95v-85.528c0-12.123,9.827-21.95,21.95-21.95h88.647c12.123,0,21.95,9.827,21.95,21.95v85.528c0,12.123-9.827,21.95-21.95,21.95ZM606.504,610.469h44.747v-41.628h-44.747v41.628Z" fill="#fff"/>
</svg>