<?xml version="1.0" encoding="UTF-8"?>
<svg id="layer1" xmlns="http://www.w3.org/2000/svg" width="1080" height="1080" viewBox="0 0 1080 1080">
  <g>
    <path d="M697.452,913.992c-2.945,0-5.894-.846-8.47-2.481-.035-.021-.07-.044-.104-.066-4.25-2.771-10.784-7.083-17.988-11.835-10.018-6.609-21.372-14.101-29.589-19.433l-.173-.114c-5.098-3.461-8.142-9.383-8.142-15.841,0-6.458,3.045-12.379,8.143-15.838.04-.027.08-.054.12-.08,5.926-3.898,12.747-8.372,19.471-12.782,11.334-7.435,22.039-14.456,28.088-18.474.058-.038.116-.076.175-.113,3.765-2.388,8.324-3.092,12.503-1.937,4.238,1.173,7.845,4.188,9.896,8.273.03.061.06.122.089.183,3.747,7.859,1.304,17.305-5.685,21.971-.02.014-.039.026-.059.039l-28.442,18.7,28.466,18.834c7.022,4.687,9.468,14.132,5.72,21.993-.029.061-.059.122-.089.183-2.051,4.085-5.657,7.101-9.896,8.273-1.318.365-2.676.545-4.033.545ZM700.232,837.109h.01-.01Z" fill="#fff"/>
    <path d="M755.982,931.219c-1.715,0-3.435-.301-5.096-.906-.164-.06-.326-.124-.487-.192-7.433-3.158-11.354-11.686-9.122-19.835.019-.068.038-.138.059-.206l34.186-115.088c.02-.064.039-.129.06-.193,1.361-4.264,4.214-7.665,8.033-9.578,3.646-1.825,7.798-2.088,11.69-.74.216.074.428.156.638.245,7.526,3.196,11.416,12.011,8.898,20.11l-34.015,115.008c-.021.068-.042.137-.063.205-1.349,4.226-4.33,7.732-8.178,9.621-2.101,1.03-4.349,1.55-6.603,1.55ZM761.236,917.007h.01-.01Z" fill="#fff"/>
    <path d="M848.968,913.996c-1.304,0-2.612-.167-3.894-.506-4.35-1.148-8.034-4.18-10.111-8.316-.03-.061-.06-.122-.089-.183-3.747-7.859-1.305-17.304,5.682-21.97l28.504-18.857-28.443-18.7c-.021-.014-.042-.027-.062-.041-6.984-4.666-9.426-14.111-5.68-21.969.029-.061.059-.122.089-.183,2.077-4.137,5.762-7.168,10.111-8.316,4.253-1.122,8.801-.354,12.485,2.108,7.934,5.19,23.905,15.696,38.072,25.016l9.463,6.225c.04.026.08.053.12.08,5.098,3.459,8.142,9.38,8.143,15.838,0,6.458-3.044,12.38-8.142,15.841l-.173.114c-8.217,5.332-19.571,12.823-29.589,19.433-7.184,4.739-13.702,9.04-17.953,11.812-2.561,1.694-5.534,2.574-8.533,2.575ZM846.528,833.746c.021.013.04.026.061.039-.021-.013-.04-.026-.061-.039Z" fill="#fff"/>
  </g>
  <path d="M662.502,670.397H241.11c-60.135,0-109.059-48.924-109.059-109.059v-265.433c0-60.135,48.924-109.059,109.059-109.059h421.392c60.136,0,109.06,48.924,109.06,109.059v265.433c0,60.135-48.924,109.059-109.06,109.059ZM241.11,246.848c-27.051,0-49.059,22.008-49.059,49.059v265.433c0,27.051,22.008,49.059,49.059,49.059h421.392c27.052,0,49.06-22.008,49.06-49.059v-265.433c0-27.051-22.008-49.059-49.06-49.059H241.11Z" fill="#fff"/>
  <path d="M450.486,783.767c-16.568,0-30-13.432-30-30v-113.369c0-16.568,13.432-30,30-30s30,13.432,30,30v113.369c0,16.568-13.432,30-30,30Z" fill="#fff"/>
  <path d="M528.68,783.767h-156.387c-16.568,0-30-13.432-30-30s13.432-30,30-30h156.387c16.568,0,30,13.432,30,30s-13.432,30-30,30Z" fill="#fff"/>
</svg>