<?xml version="1.0" encoding="UTF-8"?>
<svg id="text" xmlns="http://www.w3.org/2000/svg" width="1080" height="1080" viewBox="0 0 1080 1080">
  <g>
    <path d="M697.452,913.992c-2.945,0-5.894-.846-8.47-2.481-.035-.021-.07-.044-.104-.066-4.25-2.771-10.784-7.083-17.988-11.835-10.018-6.609-21.372-14.101-29.589-19.433l-.173-.114c-5.098-3.461-8.142-9.383-8.142-15.841,0-6.458,3.045-12.379,8.143-15.838.04-.027.08-.054.12-.08,5.926-3.898,12.747-8.372,19.471-12.782,11.334-7.435,22.039-14.456,28.088-18.474.058-.038.116-.076.175-.113,3.765-2.388,8.324-3.092,12.503-1.937,4.238,1.173,7.845,4.188,9.896,8.273.03.061.06.122.089.183,3.747,7.859,1.304,17.305-5.685,21.971-.02.014-.039.026-.059.039l-28.442,18.7,28.466,18.834c7.022,4.687,9.468,14.132,5.72,21.993-.029.061-.059.122-.089.183-2.051,4.085-5.657,7.101-9.896,8.273-1.318.365-2.676.545-4.033.545ZM700.232,837.109h.01-.01Z" fill="#fff"/>
    <path d="M755.982,931.219c-1.715,0-3.435-.301-5.096-.906-.164-.06-.326-.124-.487-.192-7.433-3.158-11.354-11.686-9.122-19.835.019-.068.038-.138.059-.206l34.186-115.088c.02-.064.039-.129.06-.193,1.361-4.264,4.214-7.665,8.033-9.578,3.646-1.825,7.798-2.088,11.69-.74.216.074.428.156.638.245,7.526,3.196,11.416,12.011,8.898,20.11l-34.015,115.008c-.021.068-.042.137-.063.205-1.349,4.226-4.33,7.732-8.178,9.621-2.101,1.03-4.349,1.55-6.603,1.55ZM761.236,917.007h.01-.01Z" fill="#fff"/>
    <path d="M848.968,913.996c-1.304,0-2.612-.167-3.894-.506-4.35-1.148-8.034-4.18-10.111-8.316-.03-.061-.06-.122-.089-.183-3.747-7.859-1.305-17.304,5.682-21.97l28.504-18.857-28.443-18.7c-.021-.014-.042-.027-.062-.041-6.984-4.666-9.426-14.111-5.68-21.969.029-.061.059-.122.089-.183,2.077-4.137,5.762-7.168,10.111-8.316,4.253-1.122,8.801-.354,12.485,2.108,7.934,5.19,23.905,15.696,38.072,25.016l9.463,6.225c.04.026.08.053.12.08,5.098,3.459,8.142,9.38,8.143,15.838,0,6.458-3.044,12.38-8.142,15.841l-.173.114c-8.217,5.332-19.571,12.823-29.589,19.433-7.184,4.739-13.702,9.04-17.953,11.812-2.561,1.694-5.534,2.574-8.533,2.575ZM846.528,833.746c.021.013.04.026.061.039-.021-.013-.04-.026-.061-.039Z" fill="#fff"/>
  </g>
  <path d="M662.502,670.397H241.11c-60.135,0-109.059-48.924-109.059-109.059v-265.433c0-60.135,48.924-109.059,109.059-109.059h421.392c60.136,0,109.06,48.924,109.06,109.059v265.433c0,60.135-48.924,109.059-109.06,109.059ZM241.11,246.848c-27.051,0-49.059,22.008-49.059,49.059v265.433c0,27.051,22.008,49.059,49.059,49.059h421.392c27.052,0,49.06-22.008,49.06-49.059v-265.433c0-27.051-22.008-49.059-49.06-49.059H241.11Z" fill="#fff"/>
  <path d="M450.486,783.767c-16.568,0-30-13.432-30-30v-113.369c0-16.568,13.432-30,30-30s30,13.432,30,30v113.369c0,16.568-13.432,30-30,30Z" fill="#fff"/>
  <path d="M528.68,783.767h-156.387c-16.568,0-30-13.432-30-30s13.432-30,30-30h156.387c16.568,0,30,13.432,30,30s-13.432,30-30,30Z" fill="#fff"/>
  <g>
    <path d="M1034.468,505.863c-11.409-8.556-26.89-14.341-47.329-17.688,11.117-2.723,20.589-6.979,28.582-12.811,16.46-12.007,25.16-29.887,25.16-51.706,0-12.726-3.127-24.029-9.176-33.486l19.812-28.01c3.777-5.34,4.261-12.341,1.255-18.149-3.007-5.809-9.001-9.456-15.542-9.456h-39.778c-7.732,0-14.548,5.074-16.765,12.481l-3.974,13.274c-5.673-.671-11.72-1.005-18.156-1.005-27.076,0-47.631,5.456-62.838,16.677-10.724,7.91-18.119,18.4-21.974,30.896-2.666-11.163-7.52-20.642-14.531-28.321-11.669-12.774-27.714-19.252-47.69-19.252-15.676,0-30.086,4.09-42.921,12.171-2.978-5.546-8.824-9.224-15.422-9.224h-31.527c-9.665,0-17.5,7.835-17.5,17.5v114.193c-2.926-2.199-6.55-3.518-10.492-3.518h-24.342v-110.675c0-7.221-4.373-13.42-10.614-16.094,7.47-1.995,12.972-8.809,12.972-16.908v-45.082c0-9.665-7.835-17.5-17.5-17.5h-43.02c-9.665,0-17.5,7.835-17.5,17.5v45.082c0,6.73,3.801,12.574,9.372,15.502h-34.597c-9.665,0-17.5,7.835-17.5,17.5v33.885c0,9.665,7.835,17.5,17.5,17.5h27.582v59.29h-37.896c-5.927,0-11.157,2.954-14.322,7.463v-174.123c0-9.665-7.835-17.5-17.5-17.5h-38.306c-9.665,0-17.5,7.835-17.5,17.5v40.838c-8.527-3.522-17.952-5.3-28.172-5.3-24.474,0-44.666,10.379-58.392,30.012-4.285,6.127-7.832,13.04-10.668,20.674-3.742-9.076-8.741-17.145-15.028-24.126-15.878-17.623-37.849-26.56-65.303-26.56-29.204,0-52.515,9.942-69.281,29.549-1.622,1.896-3.142,3.882-4.603,5.92-1.83-10.558-4.846-20.273-9.036-29.051-7.732-16.179-18.824-28.812-32.973-37.55-14.055-8.67-30.381-13.066-48.525-13.066-20.884,0-39.34,5.533-54.852,16.443-15.36,10.798-27.165,26.438-35.087,46.482-7.46,18.871-11.243,41.358-11.243,66.838,0,23.085,3.634,43.414,10.799,60.418,7.596,18.045,18.85,32.189,33.447,42.042,14.675,9.906,32.244,14.929,52.221,14.929,13.098,0,26.154-2.002,38.809-5.952,12.26-3.828,24.537-9.405,36.492-16.577,5.272-3.162,8.498-8.859,8.498-15.007v-13.242c3.694,8.998,8.612,17.015,14.785,23.971,15.78,17.788,37.731,26.807,65.245,26.807,29.394,0,52.803-9.941,69.579-29.551,5.952-6.959,10.811-14.893,14.579-23.755,3.078,9.19,7.182,17.366,12.338,24.448,13.738,18.879,33.862,28.857,58.198,28.857,14.428,0,27.231-3.615,38.165-10.763,3.163,4.758,8.563,7.816,14.579,7.816h31.233c7.074,0,13.152-4.205,15.911-10.245,2.759,6.04,8.837,10.245,15.911,10.245h135.542c5.732,0,10.804-2.768,13.996-7.027,3.192,4.259,8.264,7.027,13.996,7.027h38.6c9.665,0,17.5-7.835,17.5-17.5v-103.466c3.163-3.506,5.55-5.658,7.275-6.979,3.622-2.771,7.547-4.061,12.352-4.061,2.472,0,3.829.304,4.446.499.351.898,1.036,3.29,1.036,8.226v105.781c0,9.665,7.835,17.5,17.5,17.5h38.307c3.48,0,6.715-1.028,9.441-2.78-1.752,2.726-2.781,5.961-2.781,9.442v35.653c0,9.665,7.835,17.5,17.5,17.5,55.976,0,96.321-4.724,123.347-14.44,40.374-14.527,48.849-39.326,48.849-57.571,0-16.901-7.106-31.166-20.557-41.257ZM444.434,488.993c-1.398-2.209-4.651-9.523-4.651-29.681,0-19.089,3.342-25.519,4.367-27.035,1.434-2.123,4.981-3.199,10.545-3.199,8.54,0,10.343,2.736,11.015,3.756,1.438,2.186,4.781,9.428,4.781,29.425,0,18.927-3.428,25.274-4.478,26.769h0c-1.616,2.3-5.424,3.466-11.317,3.466-8.047,0-9.65-2.536-10.261-3.5ZM276.934,484.325c-1.119-3.605-2.454-10.616-2.454-23.539,0-12.705,1.346-19.771,2.478-23.47.895-2.926,2.062-4.979,3.289-5.779.861-.562,3.562-1.869,10.029-1.869s9.175,1.311,10.021,1.862c1.782,1.165,2.98,4.213,3.531,5.911,1.159,3.583,2.54,10.489,2.54,23.05s-1.404,19.733-2.579,23.469c-.959,3.042-2.228,5.256-3.481,6.074,0,0-.002,0-.003.002-.86.562-3.56,1.868-10.028,1.868s-9.162-1.303-10.037-1.875c-1.677-1.093-2.788-4.035-3.305-5.704ZM198.177,471.193c-5.788-3.011-12.771-2.556-18.117,1.186-8.463,5.924-17.092,10.443-25.646,13.433-8.212,2.87-16.332,4.325-24.135,4.325-7.156,0-12.675-1.229-15.972-3.565-2.925-2.068-5.197-6.068-6.753-11.891-2.246-8.396-3.385-20.507-3.385-35.994,0-15.168,1.106-27.194,3.29-35.756,1.565-6.148,3.79-10.53,6.431-12.67,2.478-2.006,6.504-3.023,11.969-3.023,9.721,0,12.229,3.396,13.174,4.676,1.59,2.162,5.275,9.258,5.275,28.505,0,9.665,7.835,17.5,17.5,17.5h39.884c-1.514,8.598-2.284,17.794-2.284,27.582,0,2.204.059,4.364.146,6.502-.446-.287-.901-.561-1.377-.809ZM969.33,425.963c-1.652.527-5.592,1.411-13.426,1.411s-11.798-.889-13.426-1.406c-.008-.159-.013-.339-.013-.541,0-.199.005-.377.013-.533,1.658-.529,5.6-1.414,13.426-1.414s11.8.892,13.426,1.407c.008.158.013.338.013.54,0,.2-.005.379-.013.536ZM873.388,551.258c1.752-2.726,2.781-5.961,2.781-9.442v-86.937c3.902,8.4,9.818,15.605,17.667,21.356l-9.709,25.834c-2.583,6.874-.6,14.629,4.966,19.42l23.278,20.037c3.175,2.733,7.226,4.236,11.416,4.236,8.592,0,16.644.237,24.112.71-16.054,1.331-37.919,2.006-65.07,2.006-3.48,0-6.715,1.028-9.441,2.78Z"/>
    <g>
      <path d="M102.876,376.661c5.695-4.612,13.355-6.924,22.982-6.924,12.376,0,21.46,3.932,27.256,11.786,5.793,7.859,8.693,20.824,8.693,38.895h41.841c0-18.269-3.145-33.982-9.429-47.145-6.289-13.158-15.078-23.228-26.372-30.203-11.298-6.97-24.411-10.46-39.337-10.46-17.288,0-32.219,4.42-44.787,13.26-12.574,8.84-22.201,21.708-28.877,38.6-6.68,16.896-10.018,37.03-10.018,60.404,0,20.824,3.139,38.702,9.428,53.628,6.285,14.931,15.322,26.372,27.109,34.327,11.786,7.956,25.93,11.934,42.43,11.934,11.391,0,22.588-1.722,33.592-5.156,10.998-3.435,21.9-8.397,32.707-14.88v-38.011c-9.826,6.878-19.793,12.081-29.908,15.616-10.119,3.536-20.088,5.305-29.908,5.305-11.003,0-19.695-2.257-26.076-6.777-6.387-4.517-10.902-11.735-13.555-21.657-2.652-9.917-3.979-23.426-3.979-40.516,0-16.694,1.275-30.055,3.831-40.073,2.551-10.019,6.676-17.334,12.376-21.952Z" fill="#a6e3a1"/>
      <path d="M292.929,376.809c-23.969,0-42.629,7.809-55.984,23.426-13.361,15.616-20.037,37.375-20.037,65.266,0,24.949,6.188,44.396,18.563,58.343,12.376,13.95,29.761,20.92,52.154,20.92,24.161,0,42.919-7.809,56.279-23.425,13.356-15.617,20.036-37.468,20.036-65.562,0-24.944-6.238-44.346-18.711-58.194-12.477-13.849-29.906-20.773-52.301-20.773ZM320.479,489.221c-2.261,7.173-5.797,12.329-10.607,15.469-4.816,3.145-11.345,4.715-19.596,4.715s-14.783-1.57-19.594-4.715c-4.816-3.14-8.301-8.199-10.461-15.175-2.164-6.97-3.241-16.547-3.241-28.729,0-11.979,1.077-21.51,3.241-28.582,2.16-7.071,5.645-12.178,10.461-15.322,4.811-3.14,11.344-4.714,19.594-4.714s14.779,1.574,19.596,4.714c4.811,3.145,8.347,8.205,10.607,15.175,2.256,6.976,3.389,16.455,3.389,28.435s-1.133,21.561-3.389,28.729Z" fill="#a6e3a1"/>
      <path d="M487.991,402.332c-3.913-6.565-8.721-11.934-14.438-16.094-8.646-6.285-19.057-9.43-31.234-9.43-18.857,0-33.545,7.514-44.051,22.541-10.511,15.028-15.764,35.999-15.764,62.909,0,26.128,5.253,46.409,15.764,60.847,10.506,14.438,25.193,21.657,44.051,21.657,12.965,0,23.914-3.683,32.854-11.05,5.997-4.943,10.993-11.42,15.001-19.415l4.888,27.518h31.233v-218.046h-38.306v78.562ZM454.695,509.993c-11.786,0-20.138-3.876-25.046-11.639-4.912-7.758-7.366-20.773-7.366-39.042,0-17.283,2.454-29.562,7.366-36.832,4.908-7.265,13.26-10.902,25.046-10.902,11.979,0,20.524,3.882,25.635,11.639,5.106,7.763,7.661,20.773,7.661,39.042,0,17.288-2.555,29.567-7.661,36.832-5.11,7.271-13.655,10.902-25.635,10.902Z" fill="#a6e3a1"/>
      <rect x="611.157" y="301.672" width="43.02" height="45.082" fill="#a6e3a1"/>
      <polygon points="651.819 379.756 568.432 379.756 568.432 413.641 613.515 413.641 613.515 507.931 558.119 507.931 558.119 541.816 693.661 541.816 693.661 507.931 651.819 507.931 651.819 379.756" fill="#a6e3a1"/>
      <path d="M811.523,376.809c-13.95,0-26.423,4.029-37.421,12.081-6.127,4.487-11.733,10.041-16.822,16.657l-4.1-25.791h-31.527v162.061h38.6v-109.922c5.251-6.419,9.966-11.227,14.144-14.422,6.676-5.106,14.337-7.661,22.983-7.661,8.053,0,13.895,2.062,17.531,6.188,3.633,4.125,5.451,10.806,5.451,20.037v105.781h38.307v-112.854c0-16.694-4.126-29.562-12.376-38.6-8.251-9.033-19.844-13.555-34.77-13.555Z" fill="#a6e3a1"/>
      <path d="M1023.97,519.864c-9.037-6.776-22.297-11.588-39.778-14.438-12.948-2.107-28.539-3.434-46.762-3.982l2.766-27.652c4.033.357,8.278.547,12.763.547,22.983,0,40.465-4.369,52.449-13.112,11.979-8.738,17.974-21.261,17.974-37.568,0-13.765-4.615-24.591-13.807-32.502l27.655-39.1h-39.778l-8.521,28.469c-8.603-2.475-18.723-3.719-30.373-3.719-22.983,0-40.47,4.42-52.449,13.26-11.983,8.84-17.974,21.611-17.974,38.306,0,14.931,5.548,26.325,16.648,34.18,3.167,2.243,6.751,4.154,10.727,5.757l-15,39.915,23.278,20.037c20.428,0,37.863,1.279,52.302,3.83,14.438,2.556,21.656,7.27,21.656,14.144,0,4.125-3.291,7.661-9.871,10.607-6.583,2.946-18.318,5.203-35.211,6.777-16.896,1.57-40.174,2.357-69.834,2.357v35.653c53.43,0,92.568-4.471,117.422-13.407,24.848-8.94,37.273-22.643,37.273-41.104,0-11.391-4.521-20.479-13.555-27.256ZM932.038,410.547c4.714-3.043,12.67-4.567,23.866-4.567s19.153,1.524,23.867,4.567c4.715,3.048,7.071,8.007,7.071,14.88s-2.356,11.837-7.071,14.881c-4.714,3.048-12.67,4.566-23.867,4.566s-19.152-1.519-23.866-4.566c-4.715-3.044-7.072-8.002-7.072-14.881s2.357-11.832,7.072-14.88Z" fill="#a6e3a1"/>
    </g>
  </g>
</svg>