<?xml version="1.0" encoding="UTF-8"?>
<svg id="layer1" xmlns="http://www.w3.org/2000/svg" width="1080" height="1080" viewBox="0 0 1080 1080">
  <path d="M741.236,757.781h-421.393c-60.135,0-109.059-48.924-109.059-109.059v-265.433c0-60.136,48.924-109.06,109.059-109.06h421.393c60.135,0,109.059,48.924,109.059,109.06v265.433c0,60.135-48.924,109.059-109.059,109.059ZM319.844,334.23c-27.051,0-49.059,22.008-49.059,49.06v265.433c0,27.051,22.008,49.059,49.059,49.059h421.393c27.051,0,49.059-22.008,49.059-49.059v-265.433c0-27.052-22.008-49.06-49.059-49.06h-421.393Z" fill="#fff"/>
  <path d="M529.22,871.15c-16.568,0-30-13.432-30-30v-113.369c0-16.568,13.432-30,30-30s30,13.432,30,30v113.369c0,16.568-13.432,30-30,30Z" fill="#fff"/>
  <path d="M607.413,871.15h-156.387c-16.568,0-30-13.432-30-30s13.432-30,30-30h156.387c16.568,0,30,13.432,30,30s-13.432,30-30,30Z" fill="#fff"/>
  <g>
    <path d="M454.65,578.74c-2.946,0-5.895-.846-8.471-2.481-.035-.021-.07-.044-.104-.066-4.25-2.771-10.784-7.083-17.988-11.835-10.018-6.609-21.372-14.101-29.589-19.433l-.173-.114c-5.098-3.461-8.142-9.383-8.142-15.841,0-6.458,3.045-12.379,8.143-15.838.04-.027.08-.054.12-.08,5.878-3.866,12.636-8.299,19.306-12.674,11.403-7.479,22.175-14.545,28.252-18.582.059-.038.117-.076.176-.113,3.764-2.389,8.32-3.096,12.504-1.937,4.238,1.173,7.845,4.188,9.896,8.273.03.061.06.122.089.183,3.747,7.858,1.304,17.304-5.683,21.97-.021.014-.041.027-.061.04l-28.442,18.7,28.466,18.834c7.022,4.688,9.467,14.133,5.72,21.993-.029.061-.059.122-.089.183-2.051,4.085-5.657,7.101-9.896,8.273-1.319.365-2.676.545-4.033.545ZM457.431,501.856h.01-.01Z" fill="#fff"/>
    <path d="M513.181,595.967c-1.716,0-3.436-.301-5.097-.906-.163-.06-.325-.124-.485-.191-7.434-3.158-11.355-11.686-9.123-19.836.019-.068.038-.138.059-.206l34.186-115.088c.02-.064.039-.129.06-.193,1.361-4.264,4.214-7.665,8.033-9.578,3.646-1.825,7.799-2.089,11.69-.74.216.074.429.156.639.245,7.525,3.197,11.415,12.012,8.897,20.11l-34.015,115.008c-.021.068-.042.137-.063.205-1.349,4.226-4.33,7.732-8.179,9.621-2.101,1.03-4.349,1.55-6.602,1.55ZM518.434,581.755h.01-.01Z" fill="#fff"/>
    <path d="M606.166,578.744c-1.306,0-2.614-.167-3.896-.506-4.348-1.149-8.033-4.181-10.109-8.316-.03-.061-.06-.122-.089-.183-3.747-7.86-1.304-17.306,5.684-21.971l28.502-18.856-28.442-18.7c-.021-.013-.041-.026-.062-.04-6.985-4.666-9.429-14.111-5.682-21.97.029-.061.059-.122.089-.183,2.076-4.136,5.762-7.167,10.109-8.316,4.254-1.122,8.802-.354,12.487,2.107,7.935,5.191,23.906,15.697,38.073,25.017l9.463,6.225c.04.026.08.053.12.08,5.098,3.459,8.142,9.38,8.143,15.838,0,6.458-3.044,12.38-8.142,15.841l-.173.114c-8.231,5.341-19.606,12.846-29.643,19.468-7.162,4.725-13.658,9.011-17.898,11.775-2.562,1.695-5.536,2.575-8.534,2.576ZM603.652,559.497s-.003.002-.005.003c.002,0,.004-.002.005-.003ZM603.726,498.494c.02.013.04.025.06.038-.02-.013-.04-.025-.06-.038Z" fill="#fff"/>
  </g>
</svg>