<?xml version="1.0" encoding="UTF-8"?>
<svg id="layer1" xmlns="http://www.w3.org/2000/svg" width="1080" height="1080" viewBox="0 0 1080 1080">
  <path d="M679.24,830.211h-295.121c-78.658,0-142.651-63.993-142.651-142.651v-295.121c0-78.658,63.993-142.651,142.651-142.651h295.121c78.657,0,142.65,63.993,142.65,142.651v295.121c0,78.658-63.993,142.651-142.65,142.651ZM384.119,309.789c-45.574,0-82.651,37.077-82.651,82.651v295.121c0,45.574,37.077,82.651,82.651,82.651h295.121c45.573,0,82.65-37.077,82.65-82.651v-295.121c0-45.574-37.077-82.651-82.65-82.651h-295.121Z" fill="#fff"/>
  <path d="M531.679,309.789c-16.568,0-30-13.432-30-30v-68.334c0-16.568,13.432-30,30-30s30,13.432,30,30v68.334c0,16.568-13.432,30-30,30Z" fill="#fff"/>
  <path d="M391.679,309.789c-16.568,0-30-13.432-30-30v-68.334c0-16.568,13.432-30,30-30s30,13.432,30,30v68.334c0,16.568-13.432,30-30,30Z" fill="#fff"/>
  <path d="M671.679,309.789c-16.568,0-30-13.432-30-30v-68.334c0-16.568,13.432-30,30-30s30,13.432,30,30v68.334c0,16.568-13.432,30-30,30Z" fill="#fff"/>
  <path d="M531.679,898.546c-16.568,0-30-13.432-30-30v-68.334c0-16.568,13.432-30,30-30s30,13.432,30,30v68.334c0,16.568-13.432,30-30,30Z" fill="#fff"/>
  <path d="M391.679,898.546c-16.568,0-30-13.432-30-30v-68.334c0-16.568,13.432-30,30-30s30,13.432,30,30v68.334c0,16.568-13.432,30-30,30Z" fill="#fff"/>
  <path d="M671.679,898.546c-16.568,0-30-13.432-30-30v-68.334c0-16.568,13.432-30,30-30s30,13.432,30,30v68.334c0,16.568-13.432,30-30,30Z" fill="#fff"/>
  <path d="M860.225,570h-68.335c-16.568,0-30-13.432-30-30s13.432-30,30-30h68.335c16.568,0,30,13.432,30,30s-13.432,30-30,30Z" fill="#fff"/>
  <path d="M860.225,430h-68.335c-16.568,0-30-13.432-30-30s13.432-30,30-30h68.335c16.568,0,30,13.432,30,30s-13.432,30-30,30Z" fill="#fff"/>
  <path d="M860.225,710h-68.335c-16.568,0-30-13.432-30-30s13.432-30,30-30h68.335c16.568,0,30,13.432,30,30s-13.432,30-30,30Z" fill="#fff"/>
  <path d="M271.468,570h-68.334c-16.568,0-30-13.432-30-30s13.432-30,30-30h68.334c16.568,0,30,13.432,30,30s-13.432,30-30,30Z" fill="#fff"/>
  <path d="M271.468,430h-68.334c-16.568,0-30-13.432-30-30s13.432-30,30-30h68.334c16.568,0,30,13.432,30,30s-13.432,30-30,30Z" fill="#fff"/>
  <path d="M271.468,710h-68.334c-16.568,0-30-13.432-30-30s13.432-30,30-30h68.334c16.568,0,30,13.432,30,30s-13.432,30-30,30Z" fill="#fff"/>
</svg>