<?xml version="1.0" encoding="UTF-8"?>
<svg id="layer1" xmlns="http://www.w3.org/2000/svg" width="1080" height="1080" viewBox="0 0 1080 1080">
  <path d="M692.595,862.597h-295.121c-78.658,0-142.651-63.993-142.651-142.651v-295.121c0-78.658,63.993-142.651,142.651-142.651h295.121c78.657,0,142.65,63.993,142.65,142.651v295.121c0,78.658-63.993,142.651-142.65,142.651ZM397.474,342.174c-45.574,0-82.651,37.077-82.651,82.651v295.121c0,45.574,37.077,82.651,82.651,82.651h295.121c45.573,0,82.65-37.077,82.65-82.651v-295.121c0-45.574-37.077-82.651-82.65-82.651h-295.121Z" fill="#fff"/>
  <path d="M545.034,342.174c-16.568,0-30-13.432-30-30v-68.334c0-16.568,13.432-30,30-30s30,13.432,30,30v68.334c0,16.568-13.432,30-30,30Z" fill="#fff"/>
  <path d="M405.034,342.174c-16.568,0-30-13.432-30-30v-68.334c0-16.568,13.432-30,30-30s30,13.432,30,30v68.334c0,16.568-13.432,30-30,30Z" fill="#fff"/>
  <path d="M685.033,342.174c-16.568,0-30-13.432-30-30v-68.334c0-16.568,13.432-30,30-30s30,13.432,30,30v68.334c0,16.568-13.432,30-30,30Z" fill="#fff"/>
  <path d="M545.034,930.931c-16.568,0-30-13.432-30-30v-68.334c0-16.568,13.432-30,30-30s30,13.432,30,30v68.334c0,16.568-13.432,30-30,30Z" fill="#fff"/>
  <path d="M405.034,930.931c-16.568,0-30-13.432-30-30v-68.334c0-16.568,13.432-30,30-30s30,13.432,30,30v68.334c0,16.568-13.432,30-30,30Z" fill="#fff"/>
  <path d="M685.033,930.931c-16.568,0-30-13.432-30-30v-68.334c0-16.568,13.432-30,30-30s30,13.432,30,30v68.334c0,16.568-13.432,30-30,30Z" fill="#fff"/>
  <path d="M873.58,602.385h-68.335c-16.568,0-30-13.432-30-30s13.432-30,30-30h68.335c16.568,0,30,13.432,30,30s-13.432,30-30,30Z" fill="#fff"/>
  <path d="M873.58,462.386h-68.335c-16.568,0-30-13.432-30-30s13.432-30,30-30h68.335c16.568,0,30,13.432,30,30s-13.432,30-30,30Z" fill="#fff"/>
  <path d="M873.58,742.385h-68.335c-16.568,0-30-13.432-30-30s13.432-30,30-30h68.335c16.568,0,30,13.432,30,30s-13.432,30-30,30Z" fill="#fff"/>
  <path d="M284.822,602.385h-68.334c-16.568,0-30-13.432-30-30s13.432-30,30-30h68.334c16.568,0,30,13.432,30,30s-13.432,30-30,30Z" fill="#fff"/>
  <path d="M284.822,462.386h-68.334c-16.568,0-30-13.432-30-30s13.432-30,30-30h68.334c16.568,0,30,13.432,30,30s-13.432,30-30,30Z" fill="#fff"/>
  <path d="M284.822,742.385h-68.334c-16.568,0-30-13.432-30-30s13.432-30,30-30h68.334c16.568,0,30,13.432,30,30s-13.432,30-30,30Z" fill="#fff"/>
</svg>