<?xml version="1.0" encoding="UTF-8"?>
<svg xmlns="http://www.w3.org/2000/svg" width="1080" height="1080" viewBox="0 0 1080 1080">
  <g id="layer1">
    <path d="M734.852,927.682c-59.873,0-108.583-48.71-108.583-108.583s48.71-108.583,108.583-108.583,108.583,48.71,108.583,108.583-48.71,108.583-108.583,108.583ZM734.852,760.516c-32.303,0-58.583,26.28-58.583,58.583s26.28,58.583,58.583,58.583,58.583-26.28,58.583-58.583-26.28-58.583-58.583-58.583Z" fill="#fff"/>
    <path d="M861.864,968.272c-6.398,0-12.796-2.44-17.678-7.322l-66.508-66.508c-9.763-9.763-9.763-25.593,0-35.355s25.592-9.764,35.355,0l66.508,66.508c9.763,9.763,9.763,25.593,0,35.355-4.882,4.882-11.279,7.322-17.678,7.322Z" fill="#fff"/>
    <path d="M662.502,670.397H241.111c-60.136,0-109.06-48.924-109.06-109.059v-265.433c0-60.135,48.924-109.059,109.06-109.059h421.392c60.135,0,109.059,48.924,109.059,109.059v265.433c0,60.135-48.924,109.059-109.059,109.059ZM241.111,246.848c-27.052,0-49.06,22.008-49.06,49.059v265.433c0,27.051,22.008,49.059,49.06,49.059h421.392c27.051,0,49.059-22.008,49.059-49.059v-265.433c0-27.051-22.008-49.059-49.059-49.059H241.111Z" fill="#fff"/>
    <path d="M450.487,783.767c-16.568,0-30-13.432-30-30v-113.369c0-16.568,13.432-30,30-30s30,13.432,30,30v113.369c0,16.568-13.432,30-30,30Z" fill="#fff"/>
    <path d="M528.68,783.767h-156.387c-16.568,0-30-13.432-30-30s13.432-30,30-30h156.387c16.568,0,30,13.432,30,30s-13.432,30-30,30Z" fill="#fff"/>
  </g>
  <g id="text">
    <g>
      <g>
        <path d="M797.869,370.867h-41.543c-9.665,0-17.5,7.835-17.5,17.5v111.863c-3.647,4.081-6.389,6.56-8.355,8.063-4.142,3.169-8.623,4.645-14.103,4.645-3.684,0-5.319-.61-5.78-.825-.333-.627-1.455-3.232-1.455-9.898v-113.848c0-9.665-7.835-17.5-17.5-17.5h-41.227c-9.665,0-17.5,7.835-17.5,17.5v28.49c-.846-2.052-1.755-4.056-2.745-5.999-7.118-13.954-17.783-24.837-31.704-32.346-13.314-7.178-29.339-10.817-47.627-10.817-31.843,0-56.953,10.425-74.633,30.985-7.961,9.259-14.06,20.223-18.323,32.77-4.086-13.82-10.573-25.738-19.465-35.612-16.825-18.675-40.139-28.144-69.291-28.144-31.021,0-55.769,10.543-73.552,31.335-10.725,12.535-18.129,28.015-22.162,46.245v-8.389c0-9.665-7.835-17.5-17.5-17.5h-80.49v-23.033h90.956c9.665,0,17.5-7.835,17.5-17.5v-38.055c0-9.665-7.835-17.5-17.5-17.5H114.785c-9.665,0-17.5,7.835-17.5,17.5v221.986c0,9.665,7.835,17.5,17.5,17.5h43.129c9.665,0,17.5-7.835,17.5-17.5v-70.66h80.49c5.716,0,10.777-2.753,13.97-6.992.758,29.056,8.917,52.57,24.313,69.921,16.719,18.847,40.009,28.402,69.223,28.402,31.228,0,56.08-10.543,73.87-31.337,7.987-9.339,14.11-20.354,18.394-32.923,4.182,14.295,10.913,26.499,20.178,36.473,17.12,18.439,41.919,27.787,73.709,27.787,26.419,0,50.828-6.732,72.552-20.01,5.201-3.179,8.373-8.836,8.373-14.932v-38.689c0-6.387-3.479-12.267-9.079-15.341-5.599-3.073-12.428-2.854-17.816.577-7.85,4.995-16.395,8.837-25.405,11.422-9.051,2.6-17.828,3.918-26.088,3.918-6.395,0-14.729-.903-18.117-5.214-1.687-2.143-5.608-9.317-5.608-29.611,0-13.74,1.531-21.413,2.82-25.442,1.724-5.404,4.062-6.905,4.829-7.397,2.633-1.689,7.329-2.62,13.223-2.62,7.06,0,10.872,1.39,11.992,2.58.117.124,2.854,3.171,2.854,15.121,0,9.665,7.835,17.5,17.5,17.5h41.226c3.761,0,7.237-1.198,10.09-3.217v37.725c0,22.395,6.021,40.343,17.896,53.343,12.29,13.462,29.229,20.288,50.345,20.288,17.129,0,32.829-4.605,46.737-13.698,2.72,6.267,8.952,10.527,16.054,10.527h33.932c9.665,0,17.5-7.835,17.5-17.5v-174.418c0-9.665-7.835-17.5-17.5-17.5ZM350.654,449.927c.744-2.438,2.059-5.623,4.085-6.947,1.275-.832,4.469-2.229,11.524-2.229s10.252,1.398,11.515,2.222c2.147,1.404,3.548,4.627,4.34,7.068,1.276,3.946,2.798,11.524,2.798,25.218s-1.544,21.551-2.837,25.658c-1.14,3.617-2.663,6.193-4.289,7.254-.002,0-.005.003-.007.004-1.272.832-4.462,2.227-11.52,2.227s-10.243-1.393-11.531-2.234c-2.049-1.336-3.359-4.46-4.103-6.859-1.232-3.97-2.701-11.656-2.701-25.731,0-13.84,1.48-21.582,2.726-25.649Z"/>
        <path d="M977.959,472.615c-7.765-9.313-17.329-16.13-28.437-20.263-8.896-3.304-20.169-6.559-33.508-9.674-.127-.03-.253-.058-.381-.085-2.992-.629-5.737-1.241-8.227-1.834,7.479.097,15.897.963,25.052,2.578,9.635,1.701,19.009,4.282,27.862,7.672,5.382,2.06,11.43,1.342,16.176-1.925,4.747-3.265,7.582-8.657,7.582-14.418v-37.737c0-7.311-4.544-13.851-11.395-16.4-11.702-4.356-23.362-7.617-34.657-9.691-11.356-2.085-22.662-3.143-33.604-3.143-25.867,0-46.819,6.095-62.278,18.118-16.556,12.881-25.307,31.528-25.307,53.928,0,15.838,4.387,29.037,13.033,39.226,7.764,9.154,17.229,15.993,28.125,20.322,9.196,3.658,20.218,6.88,33.693,9.848,1.879.435,3.649.855,5.31,1.264-17.889-.067-36.427-4.175-55.112-12.211-5.405-2.324-11.621-1.776-16.538,1.46-4.917,3.237-7.876,8.729-7.876,14.616v37.737c0,6.88,4.03,13.121,10.301,15.951,11.889,5.365,24.006,9.34,36.018,11.813,11.889,2.447,24.278,3.688,36.826,3.688,26.775,0,48.315-5.906,64.017-17.554,17.077-12.662,26.104-31.285,26.104-53.857,0-15.985-4.298-29.25-12.779-39.43Z"/>
      </g>
      <g>
        <polygon points="114.785 562.785 157.914 562.785 157.914 474.625 255.904 474.625 255.904 436.887 157.914 436.887 157.914 378.853 266.37 378.853 266.37 340.799 114.785 340.799 114.785 562.785" fill="#fab387"/>
        <path d="M369.118,385.195c-25.796,0-45.879,8.404-60.254,25.212-14.38,16.808-21.564,40.225-21.564,70.243,0,26.852,6.659,47.781,19.979,62.79,13.318,15.014,32.029,22.516,56.131,22.516,26.004,0,46.191-8.403,60.57-25.211,14.375-16.808,21.564-40.324,21.564-70.561,0-26.846-6.715-47.727-20.137-62.632-13.429-14.904-32.189-22.357-56.29-22.357ZM398.77,506.179c-2.434,7.72-6.238,13.27-11.417,16.648-5.183,3.385-12.209,5.074-21.089,5.074s-15.91-1.689-21.088-5.074c-5.184-3.379-8.935-8.824-11.259-16.331-2.329-7.502-3.488-17.809-3.488-30.92,0-12.894,1.159-23.15,3.488-30.761,2.324-7.611,6.075-13.106,11.259-16.491,5.178-3.379,12.209-5.073,21.088-5.073s15.906,1.694,21.089,5.073c5.179,3.385,8.983,8.83,11.417,16.332,2.428,7.507,3.646,17.71,3.646,30.603s-1.219,23.205-3.646,30.92Z" fill="#fab387"/>
        <path d="M526.57,428.008c5.599-3.593,13.16-5.392,22.674-5.392,11.416,0,19.662,2.695,24.736,8.087,5.073,5.391,7.61,14.429,7.61,27.114h41.226c0-15.223-2.75-28.225-8.244-39.007-5.5-10.782-13.637-19.077-24.419-24.894-10.782-5.812-23.894-8.722-39.323-8.722-26.639,0-47.094,8.3-61.363,24.895-14.271,16.6-21.406,40.013-21.406,70.243,0,27.485,6.867,48.629,20.613,63.425,13.74,14.801,34.036,22.198,60.888,22.198,23.254,0,44.397-5.812,63.425-17.441v-38.689c-9.306,5.922-19.295,10.416-29.969,13.478-10.678,3.067-20.984,4.599-30.92,4.599-15.014,0-25.637-3.964-31.87-11.892-6.239-7.929-9.355-21.406-9.355-40.434,0-12.894,1.214-23.15,3.647-30.761,2.428-7.611,6.446-13.211,12.051-16.808Z" fill="#fab387"/>
        <path d="M756.326,506.672c-5.654,6.911-10.729,12.084-15.223,15.521-7.189,5.5-15.435,8.245-24.735,8.245-8.671,0-14.96-2.22-18.868-6.659-3.915-4.44-5.867-11.625-5.867-21.564v-113.848h-41.227v121.458c0,17.973,4.439,31.821,13.319,41.544,8.88,9.727,21.352,14.587,37.421,14.587,15.009,0,28.432-4.33,40.274-13.002,6.592-4.826,12.626-10.803,18.105-17.925l4.412,27.756h33.932v-174.418h-41.543v118.305Z" fill="#fab387"/>
        <path d="M964.518,483.821c-5.816-6.977-12.844-11.996-21.088-15.063-8.246-3.062-18.711-6.075-31.396-9.038-8.037-1.689-14.429-3.275-19.187-4.757-4.756-1.477-8.617-3.538-11.574-6.184-2.963-2.642-4.44-6.075-4.44-10.307,0-4.648,2.27-8.35,6.818-11.1,4.544-2.745,11.996-4.122,22.357-4.122,8.88,0,18.71.951,29.492,2.854,10.782,1.903,21.139,4.757,31.078,8.562v-37.737c-10.782-4.014-21.356-6.978-31.712-8.88-10.361-1.902-20.51-2.854-30.444-2.854-21.99,0-39.165,4.812-51.532,14.43-12.368,9.623-18.553,22.991-18.553,40.116,0,11.629,2.959,20.93,8.881,27.907,5.916,6.977,13.002,12.104,21.246,15.38,8.246,3.28,18.602,6.293,31.078,9.038,8.246,1.903,14.588,3.598,19.027,5.074,4.44,1.481,8.191,3.488,11.259,6.025,3.062,2.537,4.599,5.817,4.599,9.831,0,4.652-2.537,8.3-7.611,10.94-5.074,2.646-13.533,3.964-25.37,3.964-20.509,0-41.335-4.544-62.474-13.636v37.737c10.782,4.866,21.564,8.403,32.347,10.624,10.782,2.22,21.882,3.329,33.298,3.329,23.041,0,40.909-4.702,53.594-14.111,12.686-9.405,19.027-22.675,19.027-39.8,0-11.837-2.908-21.247-8.721-28.224Z" fill="#fab387"/>
      </g>
    </g>
  </g>
</svg>