<?xml version="1.0" encoding="UTF-8"?>
<svg id="layer1" xmlns="http://www.w3.org/2000/svg" width="1080" height="1080" viewBox="0 0 1080 1080">
  <path d="M851.927,452.374c-11.999-50.074-35.553-97.375-68.113-136.791-29.942-36.245-65.8-64.861-106.577-85.055-42.438-21.016-87.813-31.672-134.867-31.672s-92.43,10.656-134.867,31.672c-40.777,20.194-76.635,48.811-106.577,85.055-32.561,39.416-56.114,86.717-68.113,136.791-11.909,49.698-12.54,102.506-1.826,152.716l7.435,34.841c.232,4.028.765,8.064,1.622,12.081l27.105,127.023c.88,4.126,2.085,8.098,3.552,11.918.965,3.787,2.605,7.234,4.786,10.228,13.897,24.825,40.427,40.615,69.201,40.615,5.465,0,11.014-.57,16.567-1.755l11.784-2.514c42.765-9.126,70.132-51.342,61.007-94.107l-27.106-127.023c-4.41-20.663-16.645-38.4-34.452-49.944s-38.994-15.473-59.655-11.063l-11.782,2.514c-5.585,1.192-10.946,2.974-16.039,5.264-3.433-32.378-1.389-65.355,6.149-96.813,9.881-41.231,29.253-80.154,56.023-112.559,24.53-29.695,53.783-53.078,86.946-69.501,34.087-16.881,70.505-25.44,108.24-25.44s74.153,8.56,108.24,25.44c33.163,16.423,62.416,39.806,86.946,69.501,26.771,32.405,46.143,71.327,56.023,112.559,7.562,31.557,9.593,64.642,6.115,97.118-5.289-2.438-10.873-4.325-16.701-5.569h0l-11.782-2.514c-20.664-4.41-41.849-.481-59.655,11.063-17.808,11.543-30.042,29.281-34.452,49.944l-27.106,127.023c-9.125,42.765,18.242,84.981,61.008,94.107l11.782,2.514c5.527,1.18,11.092,1.762,16.62,1.762,15.136,0,29.992-4.37,43.036-12.826,10.062-6.523,18.342-15.026,24.439-24.915,3.622-3.854,6.271-8.713,7.456-14.263l1.042-4.886c.568-1.934,1.088-3.888,1.513-5.88l27.106-127.023c.425-1.994.749-3.993,1.02-5.994l8.734-40.928c10.714-50.21,10.082-103.019-1.827-152.716ZM313.57,616.583l11.782-2.514c4.989-1.064,10.138-.095,14.496,2.731,4.359,2.826,7.346,7.129,8.41,12.119l27.106,127.022c2.185,10.233-4.616,20.724-14.848,22.907l-11.784,2.514c-4.985,1.064-10.138.095-14.496-2.731-2.638-1.71-4.763-3.968-6.273-6.584l-29.539-138.427c.86-8.09,6.88-15.274,15.145-17.038ZM749.804,778.632c-4.358,2.826-9.505,3.796-14.496,2.731l-11.782-2.514c-10.233-2.184-17.034-12.674-14.85-22.907l27.106-127.023c1.064-4.989,4.051-9.293,8.41-12.119,3.205-2.078,6.836-3.152,10.518-3.152,1.325,0,2.658.139,3.979.421l11.783,2.514c9.268,1.979,15.695,10.774,15.206,20.017l-28.329,132.752c-1.444,3.771-4.041,7.008-7.546,9.279Z" fill="#fff"/>
</svg>