<?xml version="1.0" encoding="UTF-8"?>
<svg id="layer1" xmlns="http://www.w3.org/2000/svg" width="1080" height="1080" viewBox="0 0 1080 1080">
  <g>
    <path d="M402.99,752.864c-15.096-6.834-32.87-.139-39.703,14.956-2.592,5.725-7.531,9.745-13.551,11.029-16.204,3.458-26.536,19.397-23.079,35.601,3.008,14.094,15.456,23.745,29.311,23.745,2.073,0,4.181-.217,6.29-.667,24.489-5.226,45.308-22.034,55.688-44.961,6.834-15.093.139-32.869-14.955-39.703Z" fill="#fff"/>
    <path d="M705.389,288.811c8.923-13.961,4.838-32.512-9.123-41.434-49.67-31.743-106.614-48.521-164.677-48.521-47.054,0-92.43,10.656-134.867,31.672-40.777,20.193-76.635,48.811-106.577,85.055-32.561,39.416-56.114,86.717-68.113,136.791-11.909,49.698-12.54,102.506-1.826,152.716l7.435,34.841c.232,4.027.765,8.063,1.622,12.08l7.204,33.764c.533,2.5,1.377,4.851,2.459,7.042l1.677,7.857c3.008,14.094,15.456,23.747,29.311,23.746,2.073,0,4.181-.217,6.29-.667,16.204-3.458,26.536-19.396,23.079-35.6l-11.648-54.588c.311-3.005,1.329-5.933,3.039-8.571,2.825-4.358,7.129-7.345,12.118-8.41l11.782-2.514c6.628-1.412,13.645.866,18.314,5.954,11.204,12.205,30.182,13.016,42.388,1.812,12.205-11.205,13.017-30.182,1.812-42.388-18.973-20.666-47.719-29.885-75.035-24.056l-11.782,2.514c-5.585,1.192-10.946,2.974-16.039,5.264-3.433-32.378-1.389-65.355,6.149-96.813,9.881-41.231,29.253-80.154,56.023-112.559,24.53-29.695,53.783-53.078,86.946-69.501,34.087-16.881,70.505-25.44,108.24-25.44,46.591,0,92.362,13.513,132.366,39.079,13.963,8.922,32.512,4.837,41.434-9.124Z" fill="#fff"/>
    <path d="M818.172,386.822c-7.049-14.995-24.919-21.435-39.912-14.387-14.994,7.049-21.436,24.918-14.387,39.913,21.97,46.737,30.585,99.454,25.059,151.134-5.294-2.442-10.885-4.332-16.719-5.577h0l-11.782-2.514c-20.661-4.41-41.849-.481-59.655,11.063-17.808,11.543-30.042,29.281-34.452,49.944l-27.106,127.023c-9.125,42.765,18.242,84.981,61.008,94.107l11.782,2.514c5.527,1.18,11.092,1.762,16.62,1.762,15.136,0,29.992-4.37,43.036-12.826,10.086-6.539,18.38-15.067,24.481-24.986,3.594-3.845,6.236-8.67,7.415-14.192l1.042-4.886c.568-1.934,1.088-3.888,1.513-5.88l27.106-127.023c.425-1.994.749-3.993,1.02-5.994l8.734-40.928c15.664-73.408,6.856-150.924-24.802-218.268ZM739.023,778.632c-4.359,2.826-9.506,3.796-14.496,2.731l-11.782-2.514c-10.233-2.184-17.034-12.674-14.85-22.907l27.106-127.023c1.064-4.989,4.051-9.293,8.41-12.119,3.205-2.078,6.836-3.152,10.518-3.152,1.325,0,2.658.139,3.979.421l11.783,2.514c9.268,1.979,15.695,10.774,15.206,20.017l-28.329,132.752c-1.444,3.771-4.041,7.008-7.546,9.279Z" fill="#fff"/>
  </g>
  <path d="M181.84,911.944c-7.678,0-15.355-2.929-21.213-8.787-11.716-11.716-11.716-30.711,0-42.427L843.846,177.512c11.715-11.716,30.711-11.716,42.426,0,11.716,11.716,11.716,30.711,0,42.427L203.053,903.158c-5.857,5.858-13.535,8.787-21.213,8.787Z" fill="#fff"/>
</svg>