<?xml version="1.0" encoding="UTF-8"?>
<svg id="layer1" xmlns="http://www.w3.org/2000/svg" width="1080" height="1080" viewBox="0 0 1080 1080">
  <g>
    <path d="M402.99,752.864c-15.095-6.834-32.87-.139-39.703,14.956-2.592,5.725-7.531,9.745-13.551,11.029-16.204,3.458-26.536,19.397-23.079,35.601,3.008,14.094,15.456,23.745,29.311,23.745,2.073,0,4.181-.217,6.29-.667,24.489-5.226,45.308-22.034,55.688-44.961,6.834-15.093.139-32.869-14.955-39.703Z" fill="#ab4653"/>
    <path d="M705.389,288.811c8.923-13.961,4.838-32.512-9.123-41.434-49.671-31.743-106.615-48.521-164.678-48.521-47.054,0-92.43,10.656-134.867,31.672-40.777,20.193-76.635,48.811-106.577,85.055-32.561,39.415-56.114,86.717-68.113,136.791-11.908,49.697-12.54,102.505-1.826,152.716l7.432,34.826c.228,4.009.762,8.049,1.625,12.096l7.205,33.764c.533,2.498,1.376,4.848,2.458,7.038l1.677,7.86c3.008,14.094,15.456,23.747,29.31,23.746,2.074,0,4.182-.217,6.291-.667,16.204-3.458,26.536-19.396,23.079-35.6l-11.636-54.531c.86-8.09,6.879-15.274,15.144-17.038l11.784-2.514c6.627-1.415,13.645.867,18.312,5.953,11.204,12.205,30.18,13.018,42.388,1.813,12.206-11.204,13.018-30.182,1.813-42.388-18.971-20.667-47.726-29.886-75.034-24.057l-11.784,2.514c-5.632,1.202-10.988,2.992-16.038,5.267-3.434-32.379-1.39-65.357,6.149-96.816,9.88-41.231,29.252-80.154,56.022-112.559,24.53-29.695,53.783-53.078,86.946-69.501,34.087-16.881,70.505-25.44,108.24-25.44,46.591,0,92.363,13.513,132.367,39.079,13.961,8.922,32.513,4.837,41.434-9.124Z" fill="#ab4653"/>
    <path d="M818.174,386.822c-7.049-14.994-24.914-21.436-39.913-14.387-14.994,7.048-21.436,24.918-14.388,39.913,21.97,46.736,30.585,99.455,25.06,151.134-5.295-2.442-10.885-4.332-16.72-5.577l-11.782-2.514c-42.763-9.127-84.981,18.241-94.108,61.007l-27.105,127.023c-9.125,42.765,18.242,84.981,61.007,94.107l11.782,2.514c5.527,1.18,11.092,1.762,16.62,1.762,15.136,0,29.992-4.37,43.036-12.826,10.085-6.538,18.378-15.065,24.479-24.983,3.595-3.845,6.238-8.671,7.417-14.194l1.045-4.898c.567-1.93,1.086-3.88,1.51-5.868l27.106-127.023c.426-1.993.749-3.991,1.02-5.991l8.734-40.931c15.664-73.408,6.856-150.923-24.8-218.268ZM739.023,778.632c-4.358,2.826-9.508,3.796-14.496,2.731l-11.782-2.514c-10.232-2.184-17.033-12.674-14.849-22.907l27.105-127.023c1.907-8.939,10.152-15.258,19.029-15.258,1.285,0,2.584.133,3.878.409l11.782,2.514c9.269,1.978,15.697,10.773,15.207,20.017l-28.327,132.746c-1.444,3.773-4.041,7.012-7.548,9.285Z" fill="#ab4653"/>
  </g>
  <path d="M181.84,911.944c-7.678,0-15.355-2.929-21.213-8.787-11.716-11.716-11.716-30.711,0-42.427L843.845,177.512c11.715-11.716,30.711-11.716,42.426,0,11.716,11.716,11.716,30.711,0,42.427L203.052,903.158c-5.857,5.858-13.535,8.787-21.213,8.787Z" fill="#ab4653"/>
</svg>