<?xml version="1.0" encoding="UTF-8"?>
<svg id="layer1" xmlns="http://www.w3.org/2000/svg" width="1080" height="1080" viewBox="0 0 1080 1080">
  <path d="M741.236,757.781h-421.393c-60.135,0-109.059-48.924-109.059-109.06v-265.433c0-60.135,48.924-109.059,109.059-109.059h421.393c60.135,0,109.059,48.924,109.059,109.059v265.433c0,60.136-48.924,109.06-109.059,109.06ZM319.843,334.231c-27.051,0-49.059,22.008-49.059,49.059v265.433c0,27.052,22.008,49.06,49.059,49.06h421.393c27.051,0,49.059-22.008,49.059-49.06v-265.433c0-27.051-22.008-49.059-49.059-49.059h-421.393Z" fill="#fff"/>
  <path d="M529.219,871.15c-16.568,0-30-13.432-30-30v-113.368c0-16.568,13.432-30,30-30s30,13.432,30,30v113.368c0,16.568-13.432,30-30,30Z" fill="#fff"/>
  <path d="M607.413,871.15h-156.386c-16.568,0-30-13.432-30-30s13.432-30,30-30h156.386c16.568,0,30,13.432,30,30s-13.432,30-30,30Z" fill="#fff"/>
  <path d="M530.54,611.312c-4.802,0-9.604-1.721-13.412-5.163l-70.111-63.378c-.25-.226-.493-.457-.731-.694-22.508-22.509-22.508-59.134,0-81.643,22.51-22.508,59.133-22.508,81.643,0l2.612,2.613,2.612-2.612h0c22.51-22.509,59.133-22.509,81.643,0,10.903,10.904,16.908,25.401,16.908,40.821s-6.005,29.917-16.908,40.821c-.238.237-.481.469-.731.694l-70.111,63.378c-3.809,3.442-8.61,5.163-13.412,5.163ZM474.282,513.497l56.258,50.854,56.258-50.854c3.167-3.313,4.905-7.645,4.905-12.242,0-4.735-1.844-9.188-5.193-12.536-3.349-3.35-7.801-5.193-12.536-5.193s-9.188,1.845-12.536,5.193l-16.755,16.755c-3.751,3.751-8.838,5.858-14.143,5.858s-10.392-2.107-14.143-5.858l-16.755-16.756c-3.349-3.349-7.801-5.192-12.536-5.192s-9.188,1.844-12.536,5.193c-3.35,3.349-5.193,7.801-5.193,12.536,0,4.598,1.738,8.929,4.905,12.242Z" fill="#fff"/>
</svg>