<?xml version="1.0" encoding="UTF-8"?>
<svg id="layer1" xmlns="http://www.w3.org/2000/svg" width="1080" height="1080" viewBox="0 0 1080 1080">
  <path d="M767.632,930.786c-4.802,0-9.604-1.721-13.412-5.163l-70.111-63.378c-.25-.226-.493-.457-.73-.694-10.904-10.903-16.909-25.4-16.909-40.82s6.005-29.917,16.908-40.821c10.904-10.903,25.401-16.908,40.821-16.908s29.917,6.005,40.821,16.908l2.612,2.613,2.614-2.613c10.902-10.903,25.399-16.908,40.819-16.908s29.917,6.005,40.821,16.908c10.903,10.904,16.908,25.401,16.908,40.821s-6.005,29.917-16.909,40.82c-.237.237-.48.469-.73.694l-70.111,63.378c-3.809,3.442-8.61,5.163-13.412,5.163ZM711.374,832.972l56.259,50.854,56.259-50.854c3.166-3.312,4.904-7.644,4.904-12.241,0-4.735-1.844-9.188-5.193-12.536-3.349-3.35-7.801-5.193-12.536-5.193s-9.187,1.844-12.535,5.192h0s-16.756,16.756-16.756,16.756c-7.809,7.811-20.472,7.811-28.284,0l-16.755-16.755c-3.349-3.35-7.801-5.193-12.536-5.193s-9.188,1.844-12.536,5.193c-3.35,3.349-5.193,7.801-5.193,12.536,0,4.598,1.738,8.929,4.904,12.241ZM784.388,794.052h.01-.01Z" fill="#fff"/>
  <path d="M662.503,670.397H241.11c-60.135,0-109.059-48.924-109.059-109.059v-265.433c0-60.135,48.924-109.059,109.059-109.059h421.393c60.135,0,109.059,48.924,109.059,109.059v265.433c0,60.135-48.924,109.059-109.059,109.059ZM241.11,246.848c-27.051,0-49.059,22.008-49.059,49.059v265.433c0,27.051,22.008,49.059,49.059,49.059h421.393c27.051,0,49.059-22.008,49.059-49.059v-265.433c0-27.051-22.008-49.059-49.059-49.059H241.11Z" fill="#fff"/>
  <path d="M450.486,783.767c-16.568,0-30-13.432-30-30v-113.369c0-16.568,13.432-30,30-30s30,13.432,30,30v113.369c0,16.568-13.432,30-30,30Z" fill="#fff"/>
  <path d="M528.679,783.767h-156.386c-16.568,0-30-13.432-30-30s13.432-30,30-30h156.386c16.568,0,30,13.432,30,30s-13.432,30-30,30Z" fill="#fff"/>
</svg>