<?xml version="1.0" encoding="UTF-8"?>
<svg id="layer1" xmlns="http://www.w3.org/2000/svg" width="1080" height="1080" viewBox="0 0 1080 1080">
  <g opacity=".35">
    <path d="M543.941,817.892c-7.203,0-14.405-2.582-20.117-7.745l-228.999-207.002c-.374-.338-.739-.686-1.096-1.042-59.744-59.744-59.744-156.955,0-216.699,59.742-59.743,156.955-59.745,216.699,0l33.513,33.513,33.513-33.513c28.94-28.941,67.42-44.879,108.349-44.879s79.409,15.938,108.35,44.879c59.744,59.745,59.744,156.956,0,216.7-.356.356-.722.704-1.096,1.042l-228.998,207.001c-5.712,5.164-12.914,7.745-20.117,7.745ZM335.658,559.177l208.282,188.275,208.28-188.273c35.853-36.391,35.688-95.164-.495-131.348-17.609-17.609-41.021-27.307-65.924-27.307s-48.313,9.697-65.923,27.306l-54.726,54.726c-11.715,11.716-30.711,11.716-42.426,0l-54.726-54.726c-36.352-36.351-95.496-36.351-131.848,0-36.184,36.184-36.349,94.956-.496,131.347Z" fill="#fff"/>
  </g>
</svg>