<?xml version="1.0" encoding="UTF-8"?>
<svg id="layer1" xmlns="http://www.w3.org/2000/svg" width="1080" height="1080" viewBox="0 0 1080 1080">
  <path d="M794.151,385.404c-28.94-28.941-67.42-44.879-108.35-44.879s-79.408,15.938-108.349,44.879l-33.513,33.513-33.513-33.513c-28.94-28.941-67.42-44.879-108.35-44.879s-79.409,15.938-108.35,44.88c-59.744,59.744-59.744,156.955,0,216.699.356.356.722.704,1.096,1.042l228.999,207.002c5.712,5.163,12.914,7.745,20.117,7.745s14.405-2.582,20.117-7.745l228.998-207.001c.374-.338.739-.686,1.096-1.042,28.942-28.941,44.881-67.421,44.881-108.35s-15.938-79.409-44.881-108.35Z" fill="#fff"/>
</svg>