<?xml version="1.0" encoding="UTF-8"?>
<svg id="layer1" xmlns="http://www.w3.org/2000/svg" width="1080" height="1080" viewBox="0 0 1080 1080">
  <path d="M790.127,811.556h-497.613c-56.295,0-102.095-45.8-102.095-102.095v-324.889c0-56.296,45.8-102.096,102.095-102.096h497.613c56.296,0,102.096,45.8,102.096,102.096v324.889c0,56.295-45.8,102.095-102.096,102.095ZM292.514,342.476c-23.211,0-42.095,18.884-42.095,42.096v324.889c0,23.211,18.884,42.095,42.095,42.095h497.613c23.212,0,42.096-18.884,42.096-42.095v-324.889c0-23.211-18.884-42.096-42.096-42.096h-497.613Z" fill="#fff"/>
  <path d="M545.499,624.799c-17.91,0-35.822-4.479-51.858-13.45-.47-.263-.933-.538-1.388-.826l-288.189-182.252c-14.003-8.856-18.176-27.387-9.32-41.39,8.857-14.003,27.388-18.175,41.391-9.32l287.42,181.766c13.824,7.455,30.726,7.342,44.451-.298l277.493-181.231c13.874-9.061,32.464-5.158,41.521,8.713,9.061,13.872,5.159,32.462-8.713,41.522l-278.269,181.737c-.459.3-.926.587-1.4.861-16.345,9.44-34.74,14.167-53.139,14.167Z" fill="#fff"/>
</svg>