<?xml version="1.0" encoding="UTF-8"?>
<svg id="layer1" xmlns="http://www.w3.org/2000/svg" width="1080" height="1080" viewBox="0 0 1080 1080">
  <path d="M540,194.668c-80.86,0-146.645,65.784-146.645,146.644v170.507c0,80.86,65.784,146.645,146.645,146.645s146.645-65.785,146.645-146.645v-170.507c0-80.86-65.784-146.644-146.645-146.644Z" fill="#fff"/>
  <path d="M540,813.192c-72.438,0-140.718-28.387-192.262-79.931s-79.931-119.824-79.931-192.261c0-16.568,13.432-30,30-30s30,13.432,30,30c0,56.411,22.146,109.623,62.357,149.835,40.211,40.211,93.424,62.357,149.835,62.357s109.623-22.146,149.835-62.357c40.211-40.211,62.356-93.424,62.356-149.835,0-16.568,13.432-30,30-30s30,13.432,30,30c0,72.438-28.387,140.717-79.931,192.261-51.543,51.544-119.823,79.931-192.261,79.931Z" fill="#fff"/>
  <path d="M540,958.895c-16.568,0-30-13.432-30-30v-145.703c0-16.568,13.432-30,30-30s30,13.432,30,30v145.703c0,16.568-13.432,30-30,30Z" fill="#fff"/>
</svg>