<?xml version="1.0" encoding="UTF-8"?>
<svg id="layer1" xmlns="http://www.w3.org/2000/svg" width="1080" height="1080" viewBox="0 0 1080 1080">
  <path d="M408.94,551.479c-16.568,0-30-13.432-30-30v-191.157c0-88.65,72.122-160.771,160.771-160.771,35.928,0,71.283,12.329,99.554,34.716,27.768,21.99,47.791,52.869,56.38,86.948,4.049,16.066-5.693,32.373-21.76,36.422-16.062,4.05-32.372-5.693-36.422-21.759-5.381-21.352-17.97-40.733-35.447-54.574-17.972-14.231-39.516-21.753-62.304-21.753-26.772,0-52.039,10.522-71.145,29.627-19.106,19.105-29.628,44.372-29.628,71.144v191.157c0,16.568-13.432,30-30,30Z" fill="#ab4653"/>
  <path d="M539.712,682.25c-5.339,0-10.728-.269-16.018-.798-16.486-1.65-28.513-16.353-26.862-32.839,1.651-16.486,16.362-28.521,32.839-26.862,3.312.332,6.69.5,10.04.5,26.772,0,52.039-10.522,71.145-29.627,19.106-19.105,29.628-44.372,29.628-71.144,0-16.568,13.432-30,30-30s30,13.432,30,30c0,88.65-72.122,160.771-160.771,160.771Z" fill="#ab4653"/>
  <path d="M319.843,671.57c-11.321,0-22.156-6.438-27.234-17.383-16.647-35.888-25.089-74.194-25.089-113.853,0-16.568,13.432-30,30-30s30,13.432,30,30c0,30.875,6.566,60.685,19.519,88.604,6.972,15.03.439,32.867-14.591,39.839-4.085,1.895-8.38,2.793-12.604,2.793Z" fill="#ab4653"/>
  <path d="M539.712,812.526c-42.597,0-83.464-9.678-121.466-28.766-14.807-7.437-20.78-25.468-13.344-40.274s25.467-20.78,40.273-13.343c29.57,14.853,61.376,22.383,94.535,22.383,56.411,0,109.624-22.146,149.835-62.357,40.212-40.212,62.357-93.424,62.357-149.835,0-16.568,13.432-30,30-30s30,13.432,30,30c0,72.438-28.387,140.717-79.931,192.261s-119.823,79.931-192.261,79.931Z" fill="#ab4653"/>
  <path d="M539.712,958.23c-16.568,0-30-13.432-30-30v-145.704c0-16.568,13.432-30,30-30s30,13.432,30,30v145.704c0,16.568-13.432,30-30,30Z" fill="#ab4653"/>
  <path d="M192.62,911.944c-7.678,0-15.355-2.929-21.213-8.787-11.716-11.716-11.716-30.711,0-42.427L854.626,177.512c11.715-11.716,30.711-11.716,42.426,0,11.716,11.716,11.716,30.711,0,42.427L213.833,903.158c-5.857,5.858-13.535,8.787-21.213,8.787Z" fill="#ab4653"/>
</svg>