<?xml version="1.0" encoding="UTF-8"?>
<svg id="layer1" xmlns="http://www.w3.org/2000/svg" width="1080" height="1080" viewBox="0 0 1080 1080">
  <path d="M415.204,530.102c-16.568,0-30-13.432-30-30v-181.6c0-85.044,69.188-154.233,154.233-154.233,34.468,0,68.386,11.828,95.507,33.305,26.637,21.094,45.844,50.717,54.084,83.411,4.049,16.066-5.693,32.373-21.76,36.421-16.065,4.049-32.372-5.693-36.422-21.759-5.031-19.965-16.805-38.09-33.152-51.036-16.805-13.308-36.949-20.342-58.257-20.342-25.033,0-48.659,9.84-66.526,27.707-17.867,17.867-27.707,41.493-27.707,66.526v181.6c0,16.568-13.432,30-30,30Z" fill="#ab4653"/>
  <path d="M539.438,654.334c-16.568,0-30-13.432-30-30s13.432-30,30-30c25.033,0,48.659-9.84,66.526-27.707,17.866-17.867,27.706-41.493,27.706-66.526,0-16.568,13.432-30,30-30s30,13.432,30,30c0,85.044-69.188,154.233-154.232,154.233Z" fill="#ab4653"/>
  <path d="M330.564,644.188c-11.319,0-22.156-6.438-27.233-17.382-15.909-34.293-23.976-70.896-23.976-108.792,0-16.568,13.432-30,30-30s30,13.432,30,30c0,29.111,6.191,57.218,18.403,83.542,6.973,15.03.441,32.867-14.589,39.839-4.086,1.896-8.38,2.793-12.605,2.793Z" fill="#ab4653"/>
  <path d="M539.438,778.097c-40.702,0-79.753-9.249-116.066-27.488-14.806-7.437-20.779-25.468-13.343-40.273,7.438-14.805,25.47-20.78,40.274-13.343,27.88,14.004,57.869,21.104,89.134,21.104,53.19,0,103.365-20.882,141.283-58.8,37.918-37.918,58.8-88.093,58.8-141.283,0-16.568,13.432-30,30-30s30,13.432,30,30c0,69.216-27.123,134.458-76.373,183.709-49.251,49.25-114.493,76.374-183.709,76.374Z" fill="#ab4653"/>
  <path d="M539.438,916.515c-16.568,0-30-13.432-30-30v-138.418c0-16.568,13.432-30,30-30s30,13.432,30,30v138.418c0,16.568-13.432,30-30,30Z" fill="#ab4653"/>
  <path d="M181.839,911.61c-7.678,0-15.355-2.929-21.213-8.787-11.716-11.716-11.716-30.711,0-42.427L843.846,177.177c11.715-11.716,30.711-11.716,42.426,0,11.716,11.716,11.716,30.711,0,42.427L203.052,902.823c-5.857,5.858-13.535,8.787-21.213,8.787Z" fill="#ab4653"/>
</svg>