<?xml version="1.0" encoding="UTF-8"?>
<svg id="layer1" xmlns="http://www.w3.org/2000/svg" width="1080" height="1080" viewBox="0 0 1080 1080">
  <path d="M541.32,653.942c-85.045,0-154.233-69.188-154.233-154.232v-181.6c0-85.045,69.188-154.233,154.233-154.233s154.233,69.188,154.233,154.233v181.6c0,85.044-69.188,154.232-154.233,154.232ZM541.32,223.877c-25.033,0-48.659,9.84-66.526,27.707s-27.707,41.493-27.707,66.526v181.6c0,25.033,9.84,48.659,27.707,66.526,17.867,17.866,41.493,27.706,66.526,27.706s48.659-9.84,66.526-27.706c17.867-17.867,27.707-41.493,27.707-66.526v-181.6c0-25.033-9.84-48.659-27.707-66.526s-41.493-27.707-66.526-27.707Z" fill="#fff"/>
  <path d="M541.32,777.705c-69.216,0-134.458-27.123-183.709-76.373-49.25-49.251-76.373-114.493-76.373-183.709,0-16.568,13.432-30,30-30s30,13.432,30,30c0,53.189,20.882,103.364,58.8,141.282s88.093,58.8,141.282,58.8,103.365-20.882,141.283-58.8,58.8-88.093,58.8-141.282c0-16.568,13.432-30,30-30s30,13.432,30,30c0,69.216-27.123,134.458-76.374,183.709s-114.492,76.373-183.709,76.373Z" fill="#fff"/>
  <path d="M541.32,916.123c-16.568,0-30-13.432-30-30v-138.418c0-16.568,13.432-30,30-30s30,13.432,30,30v138.418c0,16.568-13.432,30-30,30Z" fill="#fff"/>
</svg>