<?xml version="1.0" encoding="UTF-8"?>
<svg id="layer1" xmlns="http://www.w3.org/2000/svg" width="1080" height="1080" viewBox="0 0 1080 1080">
  <path d="M540,175.492c-77.645,0-140.812,63.168-140.812,140.812v161.981c0,77.644,63.168,140.812,140.812,140.812s140.812-63.168,140.812-140.812v-161.981c0-77.644-63.168-140.812-140.812-140.812Z" fill="#fff"/>
  <path d="M540,766.09c-69.217,0-134.459-27.123-183.709-76.374-49.251-49.25-76.374-114.493-76.374-183.709,0-16.568,13.432-30,30-30s30,13.432,30,30c0,53.19,20.882,103.365,58.8,141.283,37.918,37.917,88.093,58.8,141.283,58.8s103.364-20.882,141.282-58.8c37.918-37.918,58.8-88.093,58.8-141.283,0-16.568,13.432-30,30-30s30,13.432,30,30c0,69.216-27.123,134.459-76.373,183.709-49.251,49.25-114.493,76.374-183.709,76.374Z" fill="#fff"/>
  <path d="M540,904.508c-16.568,0-30-13.432-30-30v-138.418c0-16.568,13.432-30,30-30s30,13.432,30,30v138.418c0,16.568-13.432,30-30,30Z" fill="#fff"/>
</svg>