<?xml version="1.0" encoding="UTF-8"?>
<svg id="layer1" xmlns="http://www.w3.org/2000/svg" width="1080" height="1080" viewBox="0 0 1080 1080">
  <path d="M541.32,667.725c-92.445,0-167.654-75.209-167.654-167.654v-201.219c0-92.445,75.209-167.654,167.654-167.654s167.654,75.209,167.654,167.654v201.219c0,92.445-75.209,167.654-167.654,167.654ZM541.32,191.198c-28.604,0-55.596,11.24-76.005,31.649s-31.649,47.401-31.649,76.005v201.219c0,28.604,11.24,55.596,31.649,76.005s47.401,31.649,76.005,31.649,55.596-11.24,76.005-31.649,31.649-47.401,31.649-76.005v-201.219c0-28.604-11.24-55.596-31.649-76.005s-47.401-31.649-76.005-31.649Z" fill="#fff"/>
  <path d="M541.32,804.858c-38.317,0-75.568-7.571-110.719-22.505-33.889-14.397-64.353-34.978-90.545-61.17s-46.773-56.657-61.17-90.546c-14.934-35.15-22.505-72.401-22.505-110.719,0-16.568,13.432-30,30-30s30,13.432,30,30c0,59.802,23.476,116.212,66.102,158.838s99.035,66.102,158.837,66.102,116.212-23.476,158.838-66.102,66.102-99.036,66.102-158.838c0-16.568,13.432-30,30-30s30,13.432,30,30c0,38.317-7.571,75.568-22.505,110.719-14.397,33.889-34.978,64.354-61.17,90.546s-56.657,46.772-90.546,61.17c-35.15,14.934-72.401,22.505-110.719,22.505Z" fill="#fff"/>
  <path d="M541.32,958.23c-16.568,0-30-13.432-30-30v-153.372c0-16.568,13.432-30,30-30s30,13.432,30,30v153.372c0,16.568-13.432,30-30,30Z" fill="#fff"/>
</svg>