<?xml version="1.0" encoding="UTF-8"?>
<svg id="layer1" xmlns="http://www.w3.org/2000/svg" width="1080" height="1080" viewBox="0 0 1080 1080">
  <g opacity=".35">
    <path d="M408.94,551.479c-16.568,0-30-13.432-30-30v-191.157c0-88.65,72.122-160.771,160.771-160.771,35.928,0,71.283,12.329,99.553,34.716,27.769,21.99,47.791,52.869,56.38,86.949,4.049,16.066-5.693,32.373-21.76,36.421s-32.373-5.693-36.422-21.759c-5.38-21.351-17.969-40.732-35.447-54.573-17.971-14.231-39.516-21.754-62.304-21.754-26.772,0-52.039,10.522-71.145,29.627s-29.627,44.372-29.627,71.144v191.157c0,16.568-13.432,30-30,30Z" fill="#fff"/>
    <path d="M539.712,682.25c-5.339,0-10.728-.269-16.018-.798-16.486-1.65-28.513-16.353-26.862-32.839,1.65-16.486,16.365-28.519,32.839-26.862,3.312.332,6.69.5,10.041.5,26.772,0,52.039-10.522,71.145-29.627s29.627-44.372,29.627-71.144c0-16.568,13.432-30,30-30s30,13.432,30,30c0,88.65-72.122,160.771-160.771,160.771Z" fill="#fff"/>
    <path d="M319.843,671.57c-11.319,0-22.156-6.438-27.233-17.382-16.649-35.887-25.091-74.193-25.091-113.853,0-16.568,13.432-30,30-30s30,13.432,30,30c0,30.875,6.567,60.685,19.519,88.603,6.973,15.03.441,32.866-14.589,39.839-4.086,1.896-8.38,2.793-12.605,2.793Z" fill="#fff"/>
    <path d="M539.712,812.527c-42.596,0-83.463-9.679-121.466-28.767-14.807-7.437-20.78-25.468-13.344-40.273,7.436-14.806,25.465-20.782,40.273-13.343,29.571,14.853,61.377,22.383,94.536,22.383,56.411,0,109.624-22.146,149.835-62.357,40.212-40.212,62.357-93.424,62.357-149.835,0-16.568,13.432-30,30-30s30,13.432,30,30c0,72.438-28.387,140.717-79.931,192.261s-119.824,79.931-192.262,79.931Z" fill="#fff"/>
    <path d="M539.712,958.23c-16.568,0-30-13.432-30-30v-145.703c0-16.568,13.432-30,30-30s30,13.432,30,30v145.703c0,16.568-13.432,30-30,30Z" fill="#fff"/>
    <path d="M192.62,911.944c-7.678,0-15.355-2.929-21.213-8.787-11.716-11.716-11.716-30.711,0-42.427L854.627,177.512c11.715-11.716,30.711-11.716,42.426,0,11.716,11.716,11.716,30.711,0,42.427L213.833,903.158c-5.857,5.858-13.535,8.787-21.213,8.787Z" fill="#fff"/>
  </g>
</svg>