<?xml version="1.0" encoding="UTF-8"?>
<svg xmlns="http://www.w3.org/2000/svg" width="1080" height="1080" viewBox="0 0 1080 1080">
  <g id="layer1">
    <g>
      <path d="M827.348,844.383l-53.238-30.737c-4.641-2.68-10.359-2.68-15,0s-7.5,7.631-7.5,12.99v61.475c0,5.359,2.859,10.311,7.5,12.99,2.32,1.34,4.91,2.01,7.5,2.01s5.18-.67,7.5-2.01l53.238-30.737c4.641-2.68,7.5-7.631,7.5-12.99s-2.859-10.311-7.5-12.99Z" fill="#fff"/>
      <path d="M784.355,989.226c-72.704,0-131.853-59.148-131.853-131.853s59.148-131.852,131.853-131.852,131.853,59.148,131.853,131.852-59.148,131.853-131.853,131.853ZM784.355,765.521c-50.647,0-91.853,41.204-91.853,91.852s41.205,91.853,91.853,91.853,91.853-41.205,91.853-91.853-41.205-91.852-91.853-91.852Z" fill="#fff"/>
    </g>
    <path d="M662.502,670.397H241.11c-60.135,0-109.059-48.924-109.059-109.059v-265.433c0-60.135,48.924-109.059,109.059-109.059h421.392c60.136,0,109.06,48.924,109.06,109.059v265.433c0,60.135-48.924,109.059-109.06,109.059ZM241.11,246.848c-27.051,0-49.059,22.008-49.059,49.059v265.433c0,27.051,22.008,49.059,49.059,49.059h421.392c27.052,0,49.06-22.008,49.06-49.059v-265.433c0-27.051-22.008-49.059-49.06-49.059H241.11Z" fill="#fff"/>
    <path d="M450.486,783.767c-16.568,0-30-13.432-30-30v-113.369c0-16.568,13.432-30,30-30s30,13.432,30,30v113.369c0,16.568-13.432,30-30,30Z" fill="#fff"/>
    <path d="M528.68,783.767h-156.387c-16.568,0-30-13.432-30-30s13.432-30,30-30h156.387c16.568,0,30,13.432,30,30s-13.432,30-30,30Z" fill="#fff"/>
  </g>
  <g id="text">
    <g>
      <path d="M943.223,385.879c-14.823-17.631-36.777-26.57-65.255-26.57-30.568,0-54.62,9.99-71.487,29.691-16.186,18.902-24.392,44.84-24.392,77.09,0,9.286.771,17.973,2.303,26.043-2.273-1.08-4.807-1.703-7.492-1.703h-24.341v-110.675c0-7.221-4.373-13.42-10.614-16.094,7.47-1.995,12.972-8.809,12.972-16.908v-45.082c0-9.665-7.835-17.5-17.5-17.5h-43.021c-9.665,0-17.5,7.835-17.5,17.5v45.082c0,6.73,3.801,12.574,9.372,15.502h-34.597c-7.797,0-14.396,5.102-16.659,12.147-.655-2.037-1.664-3.967-3.043-5.669-3.323-4.099-8.317-6.479-13.594-6.479h-40.073c-8.5,0-15.771,6.107-17.237,14.48-4.576,26.125-10.027,50.016-16.2,71.009-1.497,5.089-3.121,10.332-4.87,15.719-1.69-5.257-3.257-10.378-4.698-15.357-6.095-21.03-11.606-45.076-16.385-71.468-1.507-8.327-8.757-14.383-17.22-14.383h-40.073c-5.276,0-10.271,2.38-13.593,6.479-3.323,4.098-4.62,9.477-3.529,14.639.599,2.833,1.23,5.675,1.867,8.517-1.54-2.084-3.161-4.1-4.892-6.022-15.878-17.623-37.85-26.56-65.304-26.56-29.203,0-52.514,9.942-69.281,29.549-3.354,3.92-6.343,8.162-9.005,12.684l-3.537-66.908c-.491-9.293-8.17-16.576-17.476-16.576h-46.85c-7.284,0-13.807,4.512-16.375,11.328l-6.608,17.531-6.608-17.531c-2.568-6.816-9.091-11.328-16.375-11.328h-46.556c-9.297,0-16.971,7.269-17.475,16.552l-11.196,206.26c-.26,4.799,1.465,9.493,4.77,12.982s7.899,5.466,12.705,5.466h38.895c9.412,0,17.139-7.444,17.488-16.851l2.927-78.758c3.268,3.938,8.172,6.327,13.47,6.327h15.912c5.298,0,10.202-2.389,13.47-6.327l2.927,78.758c.35,9.406,8.076,16.851,17.488,16.851h38.895c4.802,0,9.393-1.973,12.696-5.457,3.305-3.483,5.033-8.172,4.779-12.967l-.332-6.275c.239.277.463.567.707.841,15.778,17.786,37.73,26.805,65.243,26.805,29.393,0,52.801-9.941,69.579-29.551,15.542-18.174,23.656-42.978,24.185-73.726,1.104,3.442,2.229,6.881,3.381,10.315,9.628,28.683,20.518,55.645,32.367,80.137,2.922,6.041,9.042,9.879,15.753,9.879h47.734c6.712,0,12.833-3.839,15.755-9.882,11.861-24.529,22.75-51.49,32.362-80.133,8.918-26.563,16.358-53.401,22.189-79.878v24.217c0,9.665,7.835,17.5,17.5,17.5h27.582v59.29h-37.895c-9.665,0-17.5,7.835-17.5,17.5v33.886c0,9.665,7.835,17.5,17.5,17.5h135.541c9.665,0,17.5-7.835,17.5-17.5v-21.115c3.147,5.722,6.874,10.95,11.218,15.633,15.955,17.205,38.908,25.929,68.224,25.929,11.332,0,23.222-1.26,35.341-3.745,12.432-2.551,23.795-6.373,33.773-11.36,5.929-2.964,9.675-9.024,9.675-15.653v-33.591c0-2.2-.414-4.346-1.188-6.337,6.38-2.074,11.205-7.722,11.982-14.712.658-5.913.991-12.909.991-20.793,0-29.84-7.13-53.455-21.194-70.192ZM360.176,484.327c-1.12-3.606-2.454-10.618-2.454-23.541,0-12.705,1.346-19.772,2.477-23.47.895-2.926,2.062-4.979,3.289-5.779.861-.562,3.562-1.869,10.03-1.869s9.174,1.311,10.02,1.862c1.783,1.165,2.98,4.212,3.531,5.911,1.159,3.583,2.54,10.489,2.54,23.05s-1.404,19.733-2.58,23.471c-.958,3.041-2.227,5.254-3.48,6.072,0,0-.002,0-.003.002-.86.562-3.56,1.868-10.027,1.868s-9.163-1.303-10.038-1.875c-1.677-1.093-2.788-4.035-3.304-5.702ZM875.317,428.783c2.822,0,5.016.272,6.604.654h-13.573c1.964-.436,4.29-.654,6.97-.654ZM873.074,492.43h14.281c-2.734.238-5.375.358-7.913.358-1.997,0-4.197-.092-6.368-.358Z"/>
      <g>
        <polygon points="230.02 335.557 207.037 396.532 184.054 335.557 137.498 335.557 126.302 541.816 165.196 541.816 171.092 383.17 199.081 452.535 214.993 452.535 242.982 383.17 248.878 541.816 287.772 541.816 276.87 335.557 230.02 335.557" fill="#89b4fa"/>
        <path d="M376.169,376.809c-23.968,0-42.628,7.809-55.984,23.426-13.361,15.616-20.037,37.375-20.037,65.266,0,24.949,6.188,44.396,18.564,58.343,12.375,13.95,29.76,20.92,52.154,20.92,24.161,0,42.918-7.809,56.279-23.425,13.355-15.617,20.036-37.468,20.036-65.562,0-24.944-6.238-44.346-18.711-58.194-12.477-13.849-29.907-20.773-52.302-20.773ZM403.72,489.221c-2.26,7.173-5.797,12.329-10.607,15.469-4.816,3.145-11.344,4.715-19.595,4.715s-14.784-1.57-19.595-4.715c-4.816-3.14-8.301-8.199-10.461-15.175-2.163-6.97-3.24-16.547-3.24-28.729,0-11.979,1.077-21.51,3.24-28.582,2.16-7.071,5.645-12.178,10.461-15.322,4.811-3.14,11.344-4.714,19.595-4.714s14.778,1.574,19.595,4.714c4.811,3.145,8.348,8.205,10.607,15.175,2.256,6.976,3.389,16.455,3.389,28.435s-1.133,21.561-3.389,28.729Z" fill="#89b4fa"/>
        <path d="M561.655,452.683c-5.599,19.037-12.823,39.85-21.669,62.435-8.824-22.407-15.992-43.122-21.497-62.14-6.289-21.703-11.889-46.113-16.796-73.222h-40.073c5.893,27.896,13.555,55.888,22.982,83.977,9.43,28.094,19.936,54.12,31.529,78.084h47.734c11.588-23.964,22.099-49.99,31.527-78.084,9.43-28.089,17.09-56.081,22.983-83.977h-40.073c-4.715,26.915-10.267,51.224-16.648,72.927Z" fill="#89b4fa"/>
        <rect x="694.397" y="301.672" width="43.021" height="45.082" fill="#89b4fa"/>
        <polygon points="735.06 379.756 651.673 379.756 651.673 413.641 696.755 413.641 696.755 507.931 641.36 507.931 641.36 541.816 776.901 541.816 776.901 507.931 735.06 507.931 735.06 379.756" fill="#89b4fa"/>
        <path d="M946.918,456.071c0-25.731-5.7-45.377-17.09-58.931-11.396-13.555-28.683-20.332-51.859-20.332-25.341,0-44.741,7.859-58.194,23.573-13.458,15.718-20.185,37.619-20.185,65.708,0,25.341,6.284,44.788,18.858,58.342,12.568,13.555,31.035,20.331,55.395,20.331,10.213,0,20.82-1.132,31.824-3.389,10.998-2.256,20.818-5.548,29.465-9.87v-33.591c-8.25,3.733-17.436,6.73-27.551,8.986-10.119,2.261-19.498,3.389-28.139,3.389-14.342,0-24.604-3.729-30.792-11.197-4.425-5.336-7.259-13.4-8.52-24.161h105.903c.59-5.304.884-11.589.884-18.858ZM875.317,411.283c8.25,0,14.682,1.621,19.299,4.862,4.613,3.241,7.855,8.301,9.725,15.175,1.135,4.186,1.959,9.396,2.477,15.617h-66.776c1.132-10.76,3.702-18.874,7.725-24.31,5.598-7.56,14.779-11.345,27.551-11.345Z" fill="#89b4fa"/>
      </g>
    </g>
  </g>
</svg>