<?xml version="1.0" encoding="UTF-8"?>
<svg id="layer1" xmlns="http://www.w3.org/2000/svg" width="1080" height="1080" viewBox="0 0 1080 1080">
  <path d="M662.502,670.398H241.111c-60.136,0-109.06-48.924-109.06-109.059v-265.433c0-60.135,48.924-109.059,109.06-109.059h421.392c60.135,0,109.059,48.924,109.059,109.059v265.433c0,60.135-48.924,109.059-109.059,109.059ZM241.111,246.848c-27.052,0-49.06,22.008-49.06,49.059v265.433c0,27.051,22.008,49.059,49.06,49.059h421.392c27.051,0,49.059-22.008,49.059-49.059v-265.433c0-27.051-22.008-49.059-49.059-49.059H241.111Z" fill="#fff"/>
  <path d="M450.487,783.767c-16.568,0-30-13.432-30-30v-113.369c0-16.568,13.432-30,30-30s30,13.432,30,30v113.369c0,16.568-13.432,30-30,30Z" fill="#fff"/>
  <path d="M528.68,783.767h-156.387c-16.568,0-30-13.432-30-30s13.432-30,30-30h156.387c16.568,0,30,13.432,30,30s-13.432,30-30,30Z" fill="#fff"/>
  <path d="M970.683,765.553h-18.226v24.506h-36.452v-24.506h-4.392v-.032h-257.231v.032h-.671v24.506h-36.452v-24.506h-19.023v205.418h19.023v-16.483h36.452v16.483h5.029v.035h256.067v-.035h1.198v-16.483h36.452v16.483h18.226v-205.418ZM653.711,918.586h-36.452v-28.362h36.452v28.362ZM653.711,854.323h-36.452v-28.362h36.452v28.362ZM897.779,952.779h-226.639v-169.032h226.639v169.032ZM952.457,918.586h-36.452v-28.362h36.452v28.362ZM952.457,854.323h-36.452v-28.362h36.452v28.362Z" fill="#fff"/>
</svg>