<?xml version="1.0" encoding="UTF-8"?>
<svg id="layer1" xmlns="http://www.w3.org/2000/svg" width="1080" height="1080" viewBox="0 0 1080 1080">
  <g>
    <rect x="691.065" y="839.652" width="167.574" height="101.732" rx="25" ry="25" fill="#fff"/>
    <path d="M816.164,737.339c-18.83,0-34.94,11.832-41.312,28.447-6.371-16.615-22.48-28.447-41.311-28.447-24.391,0-44.234,19.844-44.234,44.234s19.844,44.234,44.234,44.234h82.622c24.391,0,44.234-19.844,44.234-44.234s-19.844-44.234-44.234-44.234ZM816.164,767.339c7.849,0,14.234,6.386,14.234,14.234s-6.386,14.234-14.234,14.234-14.234-6.386-14.234-14.234,6.386-14.234,14.234-14.234ZM733.542,767.339c7.849,0,14.233,6.386,14.233,14.234s-6.385,14.234-14.233,14.234-14.234-6.386-14.234-14.234,6.386-14.234,14.234-14.234Z" fill="#fff"/>
    <path d="M926.862,838.511c-4.021-2.806-9.16-3.471-13.762-1.774l-37.611,13.839c-5.9,2.171-9.82,7.79-9.82,14.077v47.813c0,6.287,3.921,11.906,9.82,14.077l37.611,13.838c1.682.619,3.435.923,5.179.923,3.028,0,6.031-.918,8.583-2.698,4.021-2.805,6.418-7.398,6.418-12.302v-75.49c0-4.903-2.396-9.497-6.418-12.303Z" fill="#fff"/>
  </g>
  <path d="M662.502,670.398H241.11c-60.135,0-109.059-48.924-109.059-109.059v-265.433c0-60.135,48.924-109.059,109.059-109.059h421.392c60.136,0,109.06,48.924,109.06,109.059v265.433c0,60.135-48.924,109.059-109.06,109.059ZM241.11,246.848c-27.051,0-49.059,22.008-49.059,49.059v265.433c0,27.051,22.008,49.059,49.059,49.059h421.392c27.052,0,49.06-22.008,49.06-49.059v-265.433c0-27.051-22.008-49.059-49.06-49.059H241.11Z" fill="#fff"/>
  <path d="M450.486,783.767c-16.568,0-30-13.432-30-30v-113.369c0-16.568,13.432-30,30-30s30,13.432,30,30v113.369c0,16.568-13.432,30-30,30Z" fill="#fff"/>
  <path d="M528.68,783.767h-156.387c-16.568,0-30-13.432-30-30s13.432-30,30-30h156.387c16.568,0,30,13.432,30,30s-13.432,30-30,30Z" fill="#fff"/>
</svg>