<?xml version="1.0" encoding="UTF-8"?>
<svg id="layer1" xmlns="http://www.w3.org/2000/svg" width="1080" height="1080" viewBox="0 0 1080 1080">
  <path d="M752.017,766.027h-421.393c-60.135,0-109.059-48.924-109.059-109.06v-265.433c0-60.135,48.924-109.059,109.059-109.059h421.393c60.135,0,109.059,48.924,109.059,109.059v265.433c0,60.136-48.924,109.06-109.059,109.06ZM330.624,342.476c-27.051,0-49.059,22.008-49.059,49.059v265.433c0,27.052,22.008,49.06,49.059,49.06h421.393c27.051,0,49.059-22.008,49.059-49.06v-265.433c0-27.051-22.008-49.059-49.059-49.059h-421.393Z" fill="#fff"/>
  <path d="M540,879.395c-16.568,0-30-13.432-30-30v-113.368c0-16.568,13.432-30,30-30s30,13.432,30,30v113.368c0,16.568-13.432,30-30,30Z" fill="#fff"/>
  <path d="M618.194,879.395h-156.387c-16.568,0-30-13.432-30-30s13.432-30,30-30h156.387c16.568,0,30,13.432,30,30s-13.432,30-30,30Z" fill="#fff"/>
  <g>
    <rect x="428.215" y="532.085" width="167.574" height="101.732" rx="25" ry="25" fill="#fff"/>
    <path d="M553.314,429.772c-18.83,0-34.94,11.832-41.312,28.448-6.372-16.616-22.481-28.448-41.312-28.448-24.391,0-44.233,19.844-44.233,44.234s19.843,44.234,44.233,44.234h82.623c24.391,0,44.234-19.844,44.234-44.234s-19.844-44.234-44.234-44.234ZM553.314,459.772c7.849,0,14.234,6.386,14.234,14.234s-6.386,14.234-14.234,14.234-14.234-6.386-14.234-14.234,6.386-14.234,14.234-14.234ZM470.691,459.772c7.849,0,14.234,6.386,14.234,14.234s-6.386,14.234-14.234,14.234-14.233-6.386-14.233-14.234,6.385-14.234,14.233-14.234Z" fill="#fff"/>
    <path d="M664.012,530.944c-4.021-2.806-9.16-3.469-13.762-1.774l-37.611,13.839c-5.9,2.171-9.82,7.79-9.82,14.077v47.812c0,6.287,3.92,11.906,9.82,14.077l37.611,13.839c1.682.619,3.435.923,5.179.923,3.028,0,6.031-.917,8.583-2.697,4.021-2.806,6.418-7.399,6.418-12.303v-75.49c0-4.903-2.396-9.497-6.418-12.303Z" fill="#fff"/>
  </g>
</svg>