<?xml version="1.0" encoding="UTF-8"?>
<svg id="layer1" xmlns="http://www.w3.org/2000/svg" width="1080" height="1080" viewBox="0 0 1080 1080">
  <path d="M733.569,412.276h-20v26.892h-40v-26.892h-4.82v-.035h-282.268v.035h-.736v26.892h-40v-26.892h-20.875v225.411h20.875v-18.087h40v18.087h5.519v.038h280.99v-.038h1.315v-18.087h40v18.087h20v-225.411ZM385.746,580.204h-40v-31.122h40v31.122ZM385.746,509.686h-40v-31.122h40v31.122ZM653.569,617.725h-248.698v-185.484h248.698v185.484ZM713.569,580.204h-40v-31.122h40v31.122ZM713.569,509.686h-40v-31.122h40v31.122Z" fill="#fff"/>
  <path d="M741.236,757.781h-421.392c-60.135,0-109.059-48.924-109.059-109.059v-265.433c0-60.136,48.924-109.06,109.059-109.06h421.392c60.136,0,109.06,48.924,109.06,109.06v265.433c0,60.135-48.924,109.059-109.06,109.059ZM319.844,334.23c-27.051,0-49.059,22.008-49.059,49.06v265.433c0,27.051,22.008,49.059,49.059,49.059h421.392c27.052,0,49.06-22.008,49.06-49.059v-265.433c0-27.052-22.008-49.06-49.06-49.06h-421.392Z" fill="#fff"/>
  <path d="M529.22,871.15c-16.568,0-30-13.432-30-30v-113.369c0-16.568,13.432-30,30-30s30,13.432,30,30v113.369c0,16.568-13.432,30-30,30Z" fill="#fff"/>
  <path d="M607.413,871.15h-156.387c-16.568,0-30-13.432-30-30s13.432-30,30-30h156.387c16.568,0,30,13.432,30,30s-13.432,30-30,30Z" fill="#fff"/>
</svg>