<?xml version="1.0" encoding="UTF-8"?>
<svg id="layer1" xmlns="http://www.w3.org/2000/svg" width="1080" height="1080" viewBox="0 0 1080 1080">
  <path d="M605.324,525.249l-223.171-128.848c-9.283-5.359-20.719-5.359-30,0-9.282,5.359-15,15.263-15,25.981v257.696c0,10.718,5.718,20.622,15,25.98,4.641,2.68,9.82,4.02,15,4.02s10.359-1.34,15-4.02l223.171-128.848c9.282-5.359,15-15.263,15-25.981s-5.718-20.622-15-25.981Z" fill="#fff"/>
  <path d="M697.17,373.751c-16.568,0-30,13.432-30,30v294.957c0,16.568,13.432,30,30,30s30-13.432,30-30v-294.957c0-16.568-13.432-30-30-30Z" fill="#fff"/>
</svg>