<?xml version="1.0" encoding="UTF-8"?>
<svg id="layer1" xmlns="http://www.w3.org/2000/svg" width="1080" height="1080" viewBox="0 0 1080 1080">
  <path d="M671.372,514.019l-168.648-97.369c-9.281-5.358-20.719-5.358-30,0-9.282,5.359-15,15.263-15,25.981v194.738c0,10.718,5.718,20.622,15,25.98,4.641,2.68,9.82,4.02,15,4.02s10.359-1.34,15-4.02l168.648-97.369c9.282-5.358,15-15.263,15-25.98s-5.718-20.622-15-25.981Z" fill="#fff"/>
  <path d="M543.941,848.454c-82.392,0-159.851-32.085-218.11-90.344-58.26-58.26-90.345-135.72-90.345-218.11s32.085-159.851,90.345-218.11,135.719-90.344,218.11-90.344,159.851,32.085,218.11,90.344c58.259,58.259,90.344,135.719,90.344,218.11s-32.085,159.851-90.344,218.11c-58.26,58.259-135.719,90.344-218.11,90.344ZM543.941,291.546c-66.364,0-128.757,25.844-175.685,72.771-46.927,46.927-72.771,109.319-72.771,175.684s25.844,128.757,72.771,175.684c46.928,46.927,109.32,72.771,175.685,72.771s128.757-25.844,175.684-72.771,72.771-109.319,72.771-175.684-25.844-128.757-72.771-175.684-109.319-72.771-175.684-72.771Z" fill="#fff"/>
</svg>