<?xml version="1.0" encoding="UTF-8"?>
<svg id="layer1" xmlns="http://www.w3.org/2000/svg" width="1080" height="1080" viewBox="0 0 1080 1080">
  <g>
    <path d="M569.958,502.635l-53.238-30.737c-4.641-2.68-10.359-2.68-15,0s-7.5,7.631-7.5,12.99v61.474c0,5.359,2.859,10.311,7.5,12.99,2.32,1.34,4.91,2.01,7.5,2.01s5.18-.67,7.5-2.01l53.238-30.736c4.641-2.68,7.5-7.631,7.5-12.99s-2.859-10.311-7.5-12.99Z" fill="#fff"/>
    <path d="M526.966,647.477c-72.704,0-131.853-59.148-131.853-131.852s59.148-131.853,131.853-131.853,131.853,59.148,131.853,131.853-59.148,131.852-131.853,131.852ZM526.966,423.773c-50.647,0-91.853,41.205-91.853,91.853s41.205,91.852,91.853,91.852,91.853-41.204,91.853-91.852-41.205-91.853-91.853-91.853Z" fill="#fff"/>
  </g>
  <path d="M741.236,757.781h-421.392c-60.135,0-109.059-48.924-109.059-109.06v-265.433c0-60.135,48.924-109.059,109.059-109.059h421.392c60.136,0,109.06,48.924,109.06,109.059v265.433c0,60.136-48.924,109.06-109.06,109.06ZM319.844,334.231c-27.051,0-49.059,22.008-49.059,49.059v265.433c0,27.052,22.008,49.06,49.059,49.06h421.392c27.052,0,49.06-22.008,49.06-49.06v-265.433c0-27.051-22.008-49.059-49.06-49.059h-421.392Z" fill="#fff"/>
  <path d="M529.22,871.15c-16.568,0-30-13.432-30-30v-113.368c0-16.568,13.432-30,30-30s30,13.432,30,30v113.368c0,16.568-13.432,30-30,30Z" fill="#fff"/>
  <path d="M607.413,871.15h-156.387c-16.568,0-30-13.432-30-30s13.432-30,30-30h156.387c16.568,0,30,13.432,30,30s-13.432,30-30,30Z" fill="#fff"/>
</svg>