<?xml version="1.0" encoding="UTF-8"?>
<svg id="layer1" xmlns="http://www.w3.org/2000/svg" width="1080" height="1080" viewBox="0 0 1080 1080">
  <path d="M741.236,757.781h-421.393c-60.135,0-109.059-48.924-109.059-109.06v-265.433c0-60.135,48.924-109.059,109.059-109.059h421.393c60.135,0,109.059,48.924,109.059,109.059v265.433c0,60.136-48.924,109.06-109.059,109.06ZM319.844,334.231c-27.051,0-49.059,22.008-49.059,49.059v265.433c0,27.052,22.008,49.06,49.059,49.06h421.393c27.051,0,49.059-22.008,49.059-49.06v-265.433c0-27.051-22.008-49.059-49.059-49.059h-421.393Z" fill="#fff"/>
  <path d="M529.22,871.15c-16.568,0-30-13.432-30-30v-113.368c0-16.568,13.432-30,30-30s30,13.432,30,30v113.368c0,16.568-13.432,30-30,30Z" fill="#fff"/>
  <path d="M607.413,871.15h-156.387c-16.568,0-30-13.432-30-30s13.432-30,30-30h156.387c16.568,0,30,13.432,30,30s-13.432,30-30,30Z" fill="#fff"/>
</svg>