<?xml version="1.0" encoding="UTF-8"?>
<svg id="layer1" xmlns="http://www.w3.org/2000/svg" width="1080" height="1080" viewBox="0 0 1080 1080">
  <path d="M734.852,927.682c-59.873,0-108.583-48.71-108.583-108.583s48.71-108.583,108.583-108.583,108.583,48.71,108.583,108.583-48.71,108.583-108.583,108.583ZM734.852,760.516c-32.303,0-58.583,26.28-58.583,58.583s26.28,58.583,58.583,58.583,58.583-26.28,58.583-58.583-26.28-58.583-58.583-58.583Z" fill="#fff"/>
  <path d="M861.864,968.272c-6.398,0-12.796-2.44-17.678-7.322l-66.508-66.508c-9.763-9.763-9.763-25.593,0-35.355s25.592-9.764,35.355,0l66.508,66.508c9.763,9.763,9.763,25.593,0,35.355-4.882,4.882-11.279,7.322-17.678,7.322Z" fill="#fff"/>
  <path d="M662.502,670.397H241.111c-60.136,0-109.06-48.924-109.06-109.059v-265.433c0-60.135,48.924-109.059,109.06-109.059h421.392c60.135,0,109.059,48.924,109.059,109.059v265.433c0,60.135-48.924,109.059-109.059,109.059ZM241.111,246.848c-27.052,0-49.06,22.008-49.06,49.059v265.433c0,27.051,22.008,49.059,49.06,49.059h421.392c27.051,0,49.059-22.008,49.059-49.059v-265.433c0-27.051-22.008-49.059-49.059-49.059H241.111Z" fill="#fff"/>
  <path d="M450.487,783.767c-16.568,0-30-13.432-30-30v-113.369c0-16.568,13.432-30,30-30s30,13.432,30,30v113.369c0,16.568-13.432,30-30,30Z" fill="#fff"/>
  <path d="M528.68,783.767h-156.387c-16.568,0-30-13.432-30-30s13.432-30,30-30h156.387c16.568,0,30,13.432,30,30s-13.432,30-30,30Z" fill="#fff"/>
</svg>