<?xml version="1.0" encoding="UTF-8"?>
<svg id="layer1" xmlns="http://www.w3.org/2000/svg" width="1080" height="1080" viewBox="0 0 1080 1080">
  <path d="M519.606,612.539c-59.873,0-108.583-48.71-108.583-108.583s48.71-108.583,108.583-108.583,108.583,48.71,108.583,108.583-48.71,108.583-108.583,108.583ZM519.606,445.373c-32.303,0-58.583,26.28-58.583,58.583s26.28,58.583,58.583,58.583,58.583-26.28,58.583-58.583-26.28-58.583-58.583-58.583Z" fill="#fff"/>
  <path d="M752.017,766.027h-421.393c-60.135,0-109.059-48.924-109.059-109.059v-265.433c0-60.136,48.924-109.06,109.059-109.06h421.393c60.135,0,109.059,48.924,109.059,109.06v265.433c0,60.135-48.924,109.059-109.059,109.059ZM330.624,342.476c-27.051,0-49.059,22.008-49.059,49.06v265.433c0,27.051,22.008,49.059,49.059,49.059h421.393c27.051,0,49.059-22.008,49.059-49.059v-265.433c0-27.052-22.008-49.06-49.059-49.06h-421.393Z" fill="#fff"/>
  <path d="M540,879.396c-16.568,0-30-13.432-30-30v-113.369c0-16.568,13.432-30,30-30s30,13.432,30,30v113.369c0,16.568-13.432,30-30,30Z" fill="#fff"/>
  <path d="M618.194,879.396h-156.387c-16.568,0-30-13.432-30-30s13.432-30,30-30h156.387c16.568,0,30,13.432,30,30s-13.432,30-30,30Z" fill="#fff"/>
  <path d="M646.618,653.13c-6.398,0-12.796-2.44-17.678-7.322l-66.509-66.509c-9.763-9.764-9.763-25.592,0-35.355,9.764-9.764,25.592-9.764,35.355,0l66.509,66.509c9.763,9.763,9.763,25.593,0,35.355-4.882,4.882-11.279,7.322-17.678,7.322Z" fill="#fff"/>
</svg>