<?xml version="1.0" encoding="UTF-8"?>
<svg id="layer1" xmlns="http://www.w3.org/2000/svg" width="1080" height="1080" viewBox="0 0 1080 1080">
  <path d="M752.017,766.026h-309.147c-16.568,0-30-13.432-30-30s13.432-30,30-30h309.147c27.051,0,49.059-22.007,49.059-49.059v-265.433c0-5.809-1.018-11.494-3.026-16.896-5.771-15.53,2.14-32.8,17.67-38.572,15.528-5.771,32.8,2.138,38.571,17.669,4.503,12.113,6.785,24.83,6.785,37.798v265.433c0,60.135-48.924,109.059-109.059,109.059Z" fill="#fff"/>
  <path d="M265.143,731.094c-9.621,0-19.068-4.617-24.869-13.183-12.239-18.076-18.708-39.15-18.708-60.943v-265.433c0-60.135,48.924-109.059,109.059-109.059h322.117c16.568,0,30,13.432,30,30s-13.432,30-30,30h-322.117c-27.051,0-49.059,22.008-49.059,49.059v265.433c0,9.754,2.901,19.196,8.392,27.303,9.289,13.72,5.697,32.372-8.022,41.661-5.152,3.489-11.005,5.162-16.792,5.162Z" fill="#fff"/>
  <path d="M540,879.395c-16.568,0-30-13.432-30-30v-113.369c0-16.568,13.432-30,30-30s30,13.432,30,30v113.369c0,16.568-13.432,30-30,30Z" fill="#fff"/>
  <path d="M618.194,879.395h-156.387c-16.568,0-30-13.432-30-30s13.432-30,30-30h156.387c16.568,0,30,13.432,30,30s-13.432,30-30,30Z" fill="#fff"/>
  <path d="M192.62,911.944c-7.678,0-15.355-2.929-21.213-8.787-11.716-11.716-11.716-30.711,0-42.427L854.626,177.512c11.715-11.716,30.711-11.716,42.426,0,11.716,11.716,11.716,30.711,0,42.427L213.833,903.158c-5.857,5.858-13.535,8.787-21.213,8.787Z" fill="#fff"/>
</svg>