<?xml version="1.0" encoding="UTF-8"?>
<svg xmlns="http://www.w3.org/2000/svg" width="1080" height="1080" viewBox="0 0 1080 1080">
  <g id="layer1">
    <path d="M662.503,670.398H241.11c-60.135,0-109.059-48.924-109.059-109.059v-265.433c0-60.135,48.924-109.059,109.059-109.059h421.393c60.135,0,109.059,48.924,109.059,109.059v265.433c0,60.135-48.924,109.059-109.059,109.059ZM241.11,246.848c-27.051,0-49.059,22.008-49.059,49.059v265.433c0,27.051,22.008,49.059,49.059,49.059h421.393c27.051,0,49.059-22.008,49.059-49.059v-265.433c0-27.051-22.008-49.059-49.059-49.059H241.11Z" fill="#fff"/>
    <path d="M450.486,783.767c-16.568,0-30-13.432-30-30v-113.369c0-16.568,13.432-30,30-30s30,13.432,30,30v113.369c0,16.568-13.432,30-30,30Z" fill="#fff"/>
    <path d="M528.679,783.767h-156.386c-16.568,0-30-13.432-30-30s13.432-30,30-30h156.386c16.568,0,30,13.432,30,30s-13.432,30-30,30Z" fill="#fff"/>
    <path d="M676.833,935.138c-1.475,0-2.969-.131-4.471-.401-13.588-2.453-22.614-15.457-20.161-29.044,4.486-24.848,24.543-52.771,53.653-74.694,31.638-23.827,68.834-36.95,104.736-36.95h71.505c13.808,0,25,11.192,25,25s-11.192,25-25,25h-71.505c-33.892,0-61.322,16.848-74.656,26.891-21.192,15.96-32.754,33.808-34.528,43.637-2.183,12.086-12.711,20.562-24.573,20.562Z" fill="#fff"/>
    <path d="M807.093,911.857c-6.822,0-13.618-2.775-18.554-8.235-9.259-10.242-8.462-26.051,1.781-35.311l54.494-49.263-49.587-44.828c-10.243-9.259-11.04-25.067-1.78-35.31,9.258-10.243,25.066-11.043,35.31-1.78l70.103,63.373c5.243,4.739,8.235,11.477,8.235,18.545s-2.992,13.806-8.235,18.546l-75.01,67.809c-4.782,4.323-10.78,6.454-16.757,6.454Z" fill="#fff"/>
  </g>
  <g id="text">
    <g>
      <path d="M943.224,385.879c-14.823-17.631-36.777-26.57-65.255-26.57-30.568,0-54.62,9.99-71.487,29.691-3.907,4.562-7.338,9.545-10.312,14.917v-33.296c0-4.642-1.844-9.093-5.126-12.374-3.281-3.282-7.732-5.126-12.374-5.126-12.211,0-24.391,2.628-36.206,7.812-7.493,3.289-14.647,7.519-21.383,12.631-2.529-6.696-8.984-11.308-16.37-11.308h-61.288c-9.665,0-17.5,7.835-17.5,17.5v33.885c0,9.665,7.835,17.5,17.5,17.5h12.555v59.29h-22.573c-3.678,0-7.087,1.14-9.903,3.078v-60.125c0-22.89-7.357-41.254-21.873-54.587-14.091-12.931-33.438-19.487-57.504-19.487-20.079,0-42.454,4.533-66.502,13.473-6.854,2.548-11.402,9.09-11.402,16.403v33.886c0,6.065,3.141,11.698,8.3,14.887,2.357,1.457,4.982,2.309,7.657,2.545-9.542,6.203-16.982,13.909-22.209,22.905v-34.444c0-21.12-5.703-38.077-16.955-50.402-11.669-12.774-27.714-19.252-47.69-19.252-11.992,0-23.297,2.448-33.771,7.299v-42.837c0-9.665-7.835-17.5-17.5-17.5h-38.6c-9.665,0-17.5,7.835-17.5,17.5v122.513c-1.072-1.956-2.239-3.833-3.521-5.609-7.459-10.336-16.811-17.956-27.807-22.653-8.995-3.834-19.971-7.35-33.64-10.77-8.878-2.174-15.762-4.186-20.465-5.982-2.878-1.098-5.148-2.574-6.952-4.526-.715-.772-.792-2.864-.792-3.728,0-2.369.609-2.873,1.309-3.451.029-.023,3.11-2.326,14.783-2.326,7.263,0,15.142.83,23.41,2.465,8.163,1.618,17.164,4.561,26.753,8.744,5.411,2.362,11.646,1.837,16.585-1.397,4.938-3.233,7.914-8.738,7.914-14.642v-38.306c0-6.986-4.155-13.303-10.57-16.069-9.768-4.213-20.443-7.461-31.739-9.656-11.184-2.167-22.366-3.266-33.237-3.266-27.979,0-50.365,7.083-66.538,21.051-16.927,14.618-25.51,34.936-25.51,60.39,0,17.289,4.111,31.672,12.215,42.743,7.688,10.512,17.133,18.313,28.061,23.182,9.141,4.08,20.524,7.822,34.772,11.436,8.542,2.182,15.211,4.168,19.801,5.896,2.64.997,4.643,2.265,6.111,3.861.373.407.402,1.759.402,2.163,0,.83,0,.958-1.145,1.768-.164.115-4.182,2.831-19.367,2.831-8.297,0-16.668-.789-24.88-2.346-8.477-1.606-17.812-4.162-27.743-7.596-5.35-1.851-11.263-.998-15.872,2.285-4.609,3.284-7.347,8.595-7.347,14.254v38.895c0,7.728,5.068,14.54,12.47,16.762,10.617,3.187,21.696,5.607,32.927,7.195,11.169,1.581,21.611,2.383,31.035,2.383,29.239,0,52.605-6.711,69.448-19.945,8.236-6.47,14.605-14.163,19.128-22.999v22.498c0,9.665,7.835,17.5,17.5,17.5h38.6c9.665,0,17.5-7.835,17.5-17.5v-103.466c3.163-3.506,5.55-5.658,7.275-6.979,3.622-2.771,7.547-4.061,12.352-4.061,2.472,0,3.829.304,4.446.499.351.898,1.036,3.29,1.036,8.226v105.781c0,9.665,7.835,17.5,17.5,17.5h38.307c9.665,0,17.5-7.835,17.5-17.5v-7.61c2.501,4.059,5.501,7.784,9.026,11.144,11.765,11.223,28.318,16.913,49.2,16.913,16.594,0,31.144-3.726,43.266-11.075,3.132,4.938,8.638,8.129,14.781,8.129h37.716c3.495,0,6.855-1.065,9.702-2.965,2.785,1.871,6.137,2.965,9.745,2.965h137.604c9.665,0,17.5-7.835,17.5-17.5v-33.886c0-.178-.021-.352-.026-.528,3.924,11.162,9.631,20.841,17.137,28.932,15.955,17.205,38.908,25.929,68.224,25.929,11.332,0,23.222-1.26,35.341-3.745,12.432-2.551,23.795-6.373,33.773-11.36,5.929-2.964,9.675-9.024,9.675-15.653v-33.591c0-2.2-.414-4.346-1.188-6.337,6.38-2.074,11.205-7.722,11.982-14.712.658-5.913.991-12.909.991-20.793,0-29.84-7.13-53.455-21.194-70.192ZM547.617,485.855c-1.308,2.397-3.077,4.137-5.568,5.472-2.947,1.578-6.509,2.346-10.889,2.346-2.941,0-4.613-.338-5.426-.576-.032-.26-.058-.614-.058-1.076,0-1.633,0-2.923,4.243-4.871,2.682-1.231,8.199-3.011,18.903-4.09-.327.989-.729,1.919-1.206,2.796ZM875.318,428.783c2.822,0,5.016.272,6.604.654h-13.573c1.964-.436,4.29-.654,6.97-.654ZM873.075,492.43h14.281c-2.734.238-5.375.358-7.913.358-1.997,0-4.197-.092-6.368-.358ZM771.009,490.431h-41.727v-45.842c4.925-3.273,10.039-5.963,15.299-8.041,9.581-3.783,21.051-5.701,34.089-5.701,2.776,0,5.392-.664,7.724-1.814-2.85,11.22-4.304,23.579-4.304,37.058,0,11.878,1.281,22.761,3.786,32.642-3.086-4.976-8.582-8.301-14.867-8.301Z"/>
      <g>
        <path d="M249.763,434.119c-8.058-3.435-18.371-6.726-30.939-9.87-9.627-2.357-17.141-4.567-22.541-6.63-5.405-2.062-9.922-5.056-13.555-8.987-3.637-3.928-5.451-9.135-5.451-15.617,0-7.071,2.551-12.716,7.662-16.942,5.105-4.222,13.747-6.335,25.93-6.335,8.443,0,17.385.935,26.812,2.799,9.43,1.869,19.545,5.156,30.35,9.871v-38.306c-8.646-3.729-18.023-6.579-28.139-8.545-10.12-1.961-20.088-2.946-29.908-2.946-23.77,0-42.136,5.599-55.101,16.796-12.965,11.196-19.447,26.915-19.447,47.145,0,13.555,2.946,24.36,8.84,32.412,5.894,8.058,12.914,13.899,21.067,17.532,8.149,3.637,18.808,7.122,31.971,10.46,9.23,2.357,16.45,4.521,21.657,6.482,5.202,1.966,9.476,4.766,12.817,8.398,3.338,3.637,5.01,8.301,5.01,13.996,0,6.68-2.851,12.034-8.545,16.059-5.7,4.028-15.521,6.04-29.467,6.04-9.428,0-18.812-.884-28.139-2.651-9.332-1.769-19.402-4.517-30.203-8.251v38.895c9.82,2.947,19.936,5.157,30.35,6.63,10.41,1.474,19.936,2.21,28.582,2.21,25.34,0,44.885-5.4,58.637-16.206,13.748-10.801,20.626-26.123,20.626-45.966,0-13.356-2.8-23.913-8.397-31.676-5.599-7.758-12.427-13.356-20.479-16.796Z" fill="#f38ba8"/>
        <path d="M395.323,376.809c-13.753,0-26.179,4.029-37.274,12.081-5.019,3.643-9.681,7.995-13.996,13.042v-78.161h-38.6v218.046h38.6v-109.922c5.252-6.419,9.966-11.227,14.144-14.422,6.676-5.106,14.337-7.661,22.983-7.661,8.053,0,13.895,2.062,17.531,6.188,3.633,4.125,5.451,10.806,5.451,20.037v105.781h38.307v-112.854c0-16.694-4.126-29.562-12.376-38.6-8.251-9.033-19.844-13.555-34.77-13.555Z" fill="#f38ba8"/>
        <path d="M606.002,433.383c0-17.873-5.404-31.772-16.205-41.693-10.807-9.917-26.031-14.881-45.672-14.881-18.076,0-38.209,4.125-60.404,12.376v33.886c9.033-4.517,17.826-7.854,26.371-10.019,8.545-2.159,17.137-3.241,25.783-3.241,11.196,0,19.248,2.458,24.161,7.366,4.644,4.648,7.091,12.026,7.342,22.124-33.784.254-58.642,5.296-74.523,15.15-16.308,10.119-24.456,24.999-24.456,44.64,0,14.342,4.222,25.539,12.67,33.591,8.443,8.058,20.819,12.081,37.127,12.081,13.747,0,25.387-2.992,34.916-8.986,7.215-4.537,13.387-10.853,18.519-18.941l4.612,24.981h37.716l-7.956-43.87v-64.563ZM562.982,494.23c-2.946,5.405-7.173,9.576-12.67,12.522-5.502,2.947-11.888,4.42-19.152,4.42-7.859,0-13.656-1.666-17.385-5.009-3.734-3.338-5.599-8.053-5.599-14.144,0-9.429,4.812-16.354,14.438-20.773,9.188-4.221,24.127-6.421,44.787-6.611v10.884c0,7.072-1.473,13.311-4.42,18.711Z" fill="#f38ba8"/>
        <path d="M722.834,395.077c-4.812,4.639-9.114,9.627-12.934,14.949l-5.188-30.271h-61.288v33.885h30.055v94.29h-40.073v33.886h137.604v-33.886h-59.227v-72.177c8.262-6.621,17.046-11.799,26.372-15.483,11.685-4.613,25.193-6.924,40.516-6.924v-42.726c-9.825,0-19.549,2.113-29.171,6.335-9.627,4.227-18.518,10.267-26.666,18.121Z" fill="#f38ba8"/>
        <path d="M946.919,456.071c0-25.731-5.7-45.377-17.09-58.931-11.396-13.555-28.683-20.332-51.859-20.332-25.341,0-44.741,7.859-58.194,23.573-13.458,15.718-20.185,37.619-20.185,65.708,0,25.341,6.284,44.788,18.858,58.342,12.568,13.555,31.035,20.331,55.395,20.331,10.213,0,20.82-1.132,31.824-3.389,10.998-2.256,20.818-5.548,29.465-9.87v-33.591c-8.25,3.733-17.436,6.73-27.551,8.986-10.119,2.261-19.498,3.389-28.139,3.389-14.342,0-24.604-3.729-30.792-11.197-4.425-5.336-7.259-13.399-8.52-24.161h105.903c.59-5.304.884-11.589.884-18.858ZM875.318,411.283c8.25,0,14.682,1.621,19.299,4.862,4.613,3.241,7.855,8.301,9.725,15.175,1.135,4.186,1.959,9.396,2.477,15.617h-66.776c1.133-10.76,3.702-18.874,7.726-24.31,5.598-7.56,14.779-11.345,27.551-11.345Z" fill="#f38ba8"/>
      </g>
    </g>
  </g>
</svg>