<?xml version="1.0" encoding="UTF-8"?>
<svg id="layer1" xmlns="http://www.w3.org/2000/svg" width="1080" height="1080" viewBox="0 0 1080 1080">
  <path d="M752.017,766.026h-421.393c-60.135,0-109.059-48.923-109.059-109.059v-265.433c0-60.135,48.924-109.059,109.059-109.059h421.393c60.135,0,109.059,48.924,109.059,109.059v265.433c0,60.135-48.924,109.059-109.059,109.059ZM330.624,342.476c-27.051,0-49.059,22.008-49.059,49.059v265.433c0,27.051,22.008,49.059,49.059,49.059h421.393c27.051,0,49.059-22.008,49.059-49.059v-265.433c0-27.051-22.008-49.059-49.059-49.059h-421.393Z" fill="#fff"/>
  <path d="M540,879.395c-16.568,0-30-13.432-30-30v-113.369c0-16.568,13.432-30,30-30s30,13.432,30,30v113.369c0,16.568-13.432,30-30,30Z" fill="#fff"/>
  <path d="M618.194,879.395h-156.387c-16.568,0-30-13.432-30-30s13.432-30,30-30h156.387c16.568,0,30,13.432,30,30s-13.432,30-30,30Z" fill="#fff"/>
  <path d="M441.323,623.38c-1.475,0-2.969-.131-4.471-.402-13.588-2.453-22.614-15.457-20.161-29.044,4.486-24.847,24.543-52.77,53.653-74.693,31.638-23.828,68.834-36.951,104.736-36.951h71.505c13.808,0,25,11.193,25,25s-11.192,25-25,25h-71.505c-33.892,0-61.322,16.848-74.656,26.89-21.192,15.961-32.754,33.809-34.528,43.638-2.183,12.085-12.711,20.562-24.573,20.562Z" fill="#fff"/>
  <path d="M571.584,600.099c-6.822,0-13.618-2.775-18.554-8.235-9.259-10.243-8.462-26.051,1.781-35.311l54.494-49.263-49.587-44.827c-10.243-9.259-11.04-25.068-1.781-35.311,9.26-10.242,25.068-11.04,35.311-1.78l70.103,63.372c5.243,4.74,8.235,11.478,8.235,18.545s-2.992,13.806-8.235,18.545l-75.01,67.809c-4.782,4.324-10.78,6.455-16.757,6.455Z" fill="#fff"/>
</svg>