<?xml version="1.0" encoding="UTF-8"?>
<svg xmlns="http://www.w3.org/2000/svg" width="1080" height="1080" viewBox="0 0 1080 1080">
  <g id="layer1">
    <path d="M813.747,863.303c-13.413,0-25.441,6.009-33.561,15.467l-66.738-29.094c.098-1.199.161-2.407.161-3.631,0-.378-.019-.752-.029-1.129l69.344-30.23c7.973,7.758,18.846,12.55,30.822,12.55,24.391,0,44.234-19.844,44.234-44.234s-19.844-44.234-44.234-44.234-44.234,19.844-44.234,44.234c0,1.586.088,3.152.252,4.696l-67.111,29.256c-8.114-9.27-20.02-15.142-33.279-15.142-24.391,0-44.234,19.843-44.234,44.233s19.844,44.234,44.234,44.234c12.367,0,23.559-5.108,31.594-13.317l68.561,29.889c-.004.229-.018.456-.018.687,0,24.391,19.844,44.234,44.234,44.234s44.234-19.844,44.234-44.234-19.844-44.234-44.234-44.234Z" fill="#fff"/>
    <path d="M662.502,670.397H241.11c-60.135,0-109.059-48.924-109.059-109.059v-265.433c0-60.135,48.924-109.059,109.059-109.059h421.392c60.136,0,109.06,48.924,109.06,109.059v265.433c0,60.135-48.924,109.059-109.06,109.059ZM241.11,246.848c-27.051,0-49.059,22.008-49.059,49.059v265.433c0,27.051,22.008,49.059,49.059,49.059h421.392c27.052,0,49.06-22.008,49.06-49.059v-265.433c0-27.051-22.008-49.059-49.06-49.059H241.11Z" fill="#fff"/>
    <path d="M450.486,783.767c-16.568,0-30-13.432-30-30v-113.369c0-16.568,13.432-30,30-30s30,13.432,30,30v113.369c0,16.568-13.432,30-30,30Z" fill="#fff"/>
    <path d="M528.68,783.767h-156.387c-16.568,0-30-13.432-30-30s13.432-30,30-30h156.387c16.568,0,30,13.432,30,30s-13.432,30-30,30Z" fill="#fff"/>
  </g>
  <g id="text">
    <g>
      <path d="M943.223,385.88c-14.821-17.632-36.776-26.571-65.255-26.571-30.568,0-54.62,9.99-71.487,29.691-3.907,4.563-7.338,9.545-10.312,14.917v-33.296c0-9.665-7.835-17.5-17.5-17.5-12.212,0-24.392,2.628-36.204,7.811-7.493,3.29-14.648,7.519-21.385,12.633-2.529-6.697-8.984-11.309-16.37-11.309h-61.288c-9.665,0-17.5,7.835-17.5,17.5v33.885c0,9.665,7.835,17.5,17.5,17.5h12.556v59.29h-22.574c-3.677,0-7.085,1.139-9.902,3.077v-60.125c0-22.89-7.357-41.253-21.873-54.587-14.09-12.931-33.438-19.487-57.505-19.487-20.078,0-42.452,4.533-66.502,13.473-6.854,2.548-11.402,9.09-11.402,16.403v33.886c0,6.065,3.141,11.698,8.3,14.887,2.357,1.457,4.982,2.309,7.657,2.545-9.542,6.203-16.982,13.909-22.209,22.906v-34.445c0-21.12-5.703-38.077-16.954-50.401-11.668-12.775-27.714-19.253-47.691-19.253-11.992,0-23.296,2.448-33.77,7.298v-42.836c0-9.665-7.835-17.5-17.5-17.5h-38.6c-9.665,0-17.5,7.835-17.5,17.5v122.514c-1.073-1.957-2.24-3.833-3.521-5.61-7.459-10.336-16.811-17.956-27.807-22.653-8.995-3.834-19.971-7.35-33.639-10.77-8.878-2.174-15.762-4.186-20.466-5.982-2.878-1.098-5.147-2.574-6.951-4.526-.715-.772-.792-2.864-.792-3.728,0-2.37.609-2.874,1.307-3.45.029-.023,3.108-2.327,14.784-2.327,7.263,0,15.142.83,23.411,2.465,8.161,1.618,17.162,4.56,26.753,8.745,5.41,2.359,11.646,1.834,16.585-1.398,4.938-3.233,7.914-8.739,7.914-14.642v-38.306c0-6.986-4.155-13.303-10.57-16.069-9.77-4.213-20.445-7.461-31.74-9.656-11.184-2.167-22.366-3.266-33.236-3.266-27.979,0-50.366,7.083-66.539,21.051-16.927,14.618-25.51,34.936-25.51,60.39,0,17.287,4.11,31.67,12.215,42.743,7.689,10.513,17.134,18.313,28.062,23.182,9.14,4.079,20.523,7.822,34.772,11.436,8.54,2.181,15.208,4.167,19.802,5.896,2.638.997,4.642,2.266,6.11,3.861.372.406.401,1.759.401,2.163,0,.83,0,.958-1.145,1.768-.164.115-4.182,2.831-19.366,2.831-8.298,0-16.669-.789-24.881-2.346-8.476-1.605-17.81-4.161-27.742-7.596-5.351-1.851-11.262-.998-15.872,2.285-4.609,3.284-7.347,8.595-7.347,14.254v38.895c0,7.728,5.068,14.54,12.47,16.762,10.617,3.187,21.696,5.607,32.927,7.195,11.169,1.581,21.611,2.383,31.035,2.383,29.238,0,52.604-6.711,69.448-19.945,8.236-6.471,14.606-14.163,19.128-23v22.499c0,9.665,7.835,17.5,17.5,17.5h38.6c9.665,0,17.5-7.835,17.5-17.5v-103.466c3.163-3.507,5.549-5.659,7.274-6.979,3.622-2.771,7.548-4.061,12.353-4.061,2.471,0,3.829.304,4.446.499.351.899,1.036,3.29,1.036,8.226v105.781c0,9.665,7.835,17.5,17.5,17.5h38.306c9.665,0,17.5-7.835,17.5-17.5v-7.61c2.501,4.059,5.501,7.784,9.027,11.144,11.766,11.223,28.317,16.912,49.199,16.912,16.593,0,31.144-3.726,43.267-11.075,3.132,4.938,8.638,8.129,14.781,8.129h37.715c3.495,0,6.855-1.066,9.702-2.965,2.786,1.871,6.137,2.965,9.746,2.965h137.605c9.665,0,17.5-7.835,17.5-17.5v-33.886c0-.178-.021-.351-.026-.527,3.924,11.162,9.631,20.84,17.137,28.931,15.955,17.205,38.908,25.929,68.224,25.929,11.331,0,23.221-1.26,35.339-3.745,12.434-2.551,23.797-6.372,33.775-11.36,5.929-2.964,9.675-9.024,9.675-15.653v-33.591c0-2.2-.413-4.345-1.188-6.337,6.381-2.074,11.207-7.724,11.983-14.715.656-5.915.989-12.91.989-20.79,0-29.842-7.13-53.457-21.194-70.191ZM547.617,485.851c-1.309,2.399-3.079,4.14-5.569,5.475-2.947,1.578-6.509,2.346-10.89,2.346-2.941,0-4.613-.338-5.426-.576-.032-.26-.058-.614-.058-1.076,0-1.633,0-2.923,4.243-4.871,2.682-1.231,8.198-3.011,18.904-4.09-.326.989-.728,1.918-1.205,2.793ZM875.316,428.783c2.822,0,5.017.272,6.604.654h-13.573c1.964-.436,4.289-.654,6.969-.654ZM873.073,492.43h14.282c-2.734.238-5.376.358-7.914.358-1.997,0-4.197-.092-6.368-.358ZM771.009,490.431h-41.727v-45.843c4.925-3.273,10.037-5.962,15.297-8.04,9.583-3.783,21.053-5.701,34.09-5.701,2.776,0,5.392-.664,7.724-1.814-2.85,11.22-4.304,23.579-4.304,37.058,0,11.878,1.281,22.76,3.786,32.64-3.086-4.975-8.581-8.299-14.866-8.299Z"/>
      <g>
        <path d="M249.762,434.119c-8.058-3.435-18.37-6.726-30.938-9.87-9.627-2.357-17.141-4.567-22.541-6.63-5.406-2.062-9.922-5.056-13.555-8.987-3.637-3.928-5.451-9.135-5.451-15.617,0-7.071,2.551-12.716,7.661-16.942,5.106-4.222,13.747-6.335,25.93-6.335,8.444,0,17.385.935,26.813,2.799,9.43,1.869,19.544,5.156,30.35,9.871v-38.306c-8.646-3.729-18.024-6.579-28.14-8.545-10.12-1.961-20.087-2.946-29.907-2.946-23.771,0-42.137,5.599-55.102,16.796-12.965,11.196-19.447,26.915-19.447,47.145,0,13.555,2.947,24.36,8.84,32.412,5.894,8.058,12.914,13.899,21.068,17.532,8.148,3.637,18.807,7.122,31.971,10.46,9.23,2.357,16.449,4.521,21.656,6.482,5.203,1.966,9.476,4.766,12.818,8.398,3.338,3.637,5.009,8.301,5.009,13.996,0,6.68-2.851,12.034-8.545,16.059-5.7,4.028-15.521,6.04-29.466,6.04-9.429,0-18.812-.884-28.14-2.651-9.332-1.769-19.401-4.517-30.202-8.251v38.895c9.82,2.947,19.936,5.157,30.35,6.63,10.41,1.474,19.936,2.21,28.582,2.21,25.34,0,44.884-5.4,58.637-16.206,13.747-10.801,20.625-26.123,20.625-45.966,0-13.356-2.799-23.913-8.397-31.676-5.599-7.758-12.427-13.356-20.479-16.796Z" fill="#f38ba8"/>
        <path d="M395.321,376.809c-13.752,0-26.178,4.029-37.273,12.081-5.019,3.643-9.681,7.995-13.996,13.041v-78.16h-38.6v218.046h38.6v-109.923c5.251-6.419,9.966-11.226,14.143-14.422,6.676-5.106,14.338-7.661,22.984-7.661,8.052,0,13.895,2.062,17.531,6.188,3.633,4.125,5.451,10.806,5.451,20.037v105.781h38.306v-112.854c0-16.694-4.126-29.562-12.376-38.6-8.25-9.033-19.844-13.555-34.77-13.555Z" fill="#f38ba8"/>
        <path d="M606.001,433.383c0-17.873-5.405-31.772-16.206-41.693-10.806-9.917-26.031-14.881-45.672-14.881-18.075,0-38.208,4.125-60.404,12.376v33.886c9.033-4.517,17.827-7.854,26.372-10.019,8.545-2.159,17.136-3.241,25.782-3.241,11.196,0,19.249,2.458,24.161,7.366,4.645,4.648,7.092,12.026,7.342,22.124-33.783.254-58.642,5.296-74.524,15.15-16.307,10.119-24.456,24.999-24.456,44.64,0,14.342,4.222,25.539,12.671,33.591,8.443,8.058,20.818,12.081,37.126,12.081,13.747,0,25.387-2.992,34.917-8.986,7.215-4.537,13.387-10.853,18.519-18.941l4.612,24.981h37.715l-7.955-43.869v-64.565ZM562.981,494.229c-2.947,5.405-7.174,9.576-12.67,12.522-5.502,2.947-11.889,4.42-19.153,4.42-7.858,0-13.655-1.666-17.385-5.009-3.733-3.338-5.599-8.053-5.599-14.144,0-9.429,4.812-16.354,14.438-20.773,9.188-4.221,24.128-6.421,44.788-6.611v10.884c0,7.072-1.474,13.311-4.42,18.711Z" fill="#f38ba8"/>
        <path d="M722.832,395.077c-4.812,4.638-9.113,9.628-12.933,14.949l-5.189-30.271h-61.288v33.885h30.056v94.29h-40.074v33.886h137.605v-33.886h-59.227v-72.177c8.262-6.621,17.045-11.798,26.371-15.483,11.686-4.613,25.193-6.924,40.516-6.924v-42.726c-9.824,0-19.549,2.113-29.17,6.335-9.628,4.227-18.518,10.267-26.667,18.121Z" fill="#f38ba8"/>
        <path d="M946.917,456.071c0-25.731-5.699-45.377-17.09-58.931-11.395-13.555-28.683-20.332-51.859-20.332-25.34,0-44.741,7.859-58.194,23.573-13.458,15.718-20.185,37.619-20.185,65.708,0,25.341,6.285,44.788,18.859,58.342,12.568,13.555,31.035,20.331,55.395,20.331,10.212,0,20.819-1.132,31.823-3.389,10.999-2.256,20.819-5.548,29.466-9.87v-33.591c-8.251,3.733-17.436,6.73-27.551,8.986-10.119,2.261-19.498,3.389-28.14,3.389-14.341,0-24.604-3.729-30.792-11.197-4.424-5.336-7.258-13.4-8.519-24.161h105.903c.589-5.304.883-11.589.883-18.858ZM875.316,411.283c8.25,0,14.683,1.621,19.3,4.862,4.613,3.241,7.854,8.301,9.724,15.175,1.135,4.186,1.959,9.396,2.477,15.617h-66.775c1.132-10.76,3.701-18.874,7.725-24.31,5.599-7.56,14.779-11.345,27.551-11.345Z" fill="#f38ba8"/>
      </g>
    </g>
  </g>
</svg>