<?xml version="1.0" encoding="UTF-8"?>
<svg id="layer1" xmlns="http://www.w3.org/2000/svg" width="1080" height="1080" viewBox="0 0 1080 1080">
  <g opacity=".35">
    <path d="M752.016,766.026h-309.147c-16.568,0-30-13.432-30-30s13.432-30,30-30h309.147c27.051,0,49.059-22.008,49.059-49.059v-265.433c0-5.809-1.018-11.494-3.026-16.898-5.771-15.531,2.143-32.799,17.674-38.57,15.528-5.771,32.8,2.142,38.57,17.673,4.5,12.113,6.782,24.829,6.782,37.795v265.433c0,60.135-48.924,109.059-109.059,109.059Z" fill="#fff"/>
    <path d="M265.142,731.093c-9.621,0-19.068-4.617-24.869-13.184-12.239-18.076-18.708-39.149-18.708-60.942v-265.433c0-60.135,48.924-109.059,109.06-109.059h322.116c16.568,0,30,13.432,30,30s-13.432,30-30,30h-322.116c-27.052,0-49.06,22.008-49.06,49.059v265.433c0,9.754,2.901,19.195,8.392,27.304,9.289,13.719,5.697,32.371-8.022,41.661-5.152,3.489-11.005,5.161-16.792,5.161Z" fill="#fff"/>
    <path d="M540.001,879.395c-16.568,0-30-13.432-30-30v-113.369c0-16.568,13.432-30,30-30s30,13.432,30,30v113.369c0,16.568-13.432,30-30,30Z" fill="#fff"/>
    <path d="M618.193,879.395h-156.386c-16.568,0-30-13.432-30-30s13.432-30,30-30h156.386c16.568,0,30,13.432,30,30s-13.432,30-30,30Z" fill="#fff"/>
    <path d="M192.62,911.944c-7.678,0-15.355-2.929-21.213-8.787-11.716-11.716-11.716-30.71,0-42.426L854.627,177.511c11.715-11.716,30.711-11.716,42.426,0,11.716,11.716,11.716,30.711,0,42.427L213.833,903.157c-5.857,5.858-13.535,8.787-21.213,8.787Z" fill="#fff"/>
  </g>
</svg>