<?xml version="1.0" encoding="UTF-8"?>
<svg id="layer1" xmlns="http://www.w3.org/2000/svg" width="1080" height="1080" viewBox="0 0 1080 1080">
  <path d="M662.503,670.398H241.11c-60.135,0-109.059-48.924-109.059-109.059v-265.433c0-60.135,48.924-109.059,109.059-109.059h421.393c60.135,0,109.059,48.924,109.059,109.059v265.433c0,60.135-48.924,109.059-109.059,109.059ZM241.11,246.848c-27.051,0-49.059,22.008-49.059,49.059v265.433c0,27.051,22.008,49.059,49.059,49.059h421.393c27.051,0,49.059-22.008,49.059-49.059v-265.433c0-27.051-22.008-49.059-49.059-49.059H241.11Z" fill="#fff"/>
  <path d="M450.486,783.767c-16.568,0-30-13.432-30-30v-113.369c0-16.568,13.432-30,30-30s30,13.432,30,30v113.369c0,16.568-13.432,30-30,30Z" fill="#fff"/>
  <path d="M528.679,783.767h-156.386c-16.568,0-30-13.432-30-30s13.432-30,30-30h156.386c16.568,0,30,13.432,30,30s-13.432,30-30,30Z" fill="#fff"/>
  <path d="M676.833,935.138c-1.475,0-2.969-.131-4.471-.401-13.588-2.453-22.614-15.457-20.161-29.044,4.486-24.848,24.543-52.771,53.653-74.694,31.638-23.827,68.834-36.95,104.736-36.95h71.505c13.808,0,25,11.192,25,25s-11.192,25-25,25h-71.505c-33.892,0-61.322,16.848-74.656,26.891-21.192,15.96-32.754,33.808-34.528,43.637-2.183,12.086-12.711,20.562-24.573,20.562Z" fill="#fff"/>
  <path d="M807.093,911.857c-6.822,0-13.618-2.775-18.554-8.235-9.259-10.242-8.462-26.051,1.781-35.311l54.494-49.263-49.587-44.828c-10.243-9.259-11.04-25.067-1.78-35.31,9.258-10.243,25.066-11.043,35.31-1.78l70.103,63.373c5.243,4.739,8.235,11.477,8.235,18.545s-2.992,13.806-8.235,18.546l-75.01,67.809c-4.782,4.323-10.78,6.454-16.757,6.454Z" fill="#fff"/>
</svg>