<?xml version="1.0" encoding="UTF-8"?>
<svg id="layer1" xmlns="http://www.w3.org/2000/svg" width="1080" height="1080" viewBox="0 0 1080 1080">
  <path d="M813.747,863.303c-13.413,0-25.441,6.009-33.561,15.467l-66.738-29.094c.098-1.199.161-2.407.161-3.631,0-.378-.019-.752-.029-1.129l69.344-30.23c7.973,7.758,18.846,12.55,30.822,12.55,24.391,0,44.234-19.844,44.234-44.234s-19.844-44.234-44.234-44.234-44.234,19.844-44.234,44.234c0,1.586.088,3.152.252,4.696l-67.111,29.256c-8.114-9.27-20.02-15.142-33.279-15.142-24.391,0-44.234,19.843-44.234,44.233s19.844,44.234,44.234,44.234c12.367,0,23.559-5.108,31.594-13.317l68.561,29.889c-.004.229-.018.456-.018.687,0,24.391,19.844,44.234,44.234,44.234s44.234-19.844,44.234-44.234-19.844-44.234-44.234-44.234Z" fill="#fff"/>
  <path d="M662.502,670.397H241.11c-60.135,0-109.059-48.924-109.059-109.059v-265.433c0-60.135,48.924-109.059,109.059-109.059h421.392c60.136,0,109.06,48.924,109.06,109.059v265.433c0,60.135-48.924,109.059-109.06,109.059ZM241.11,246.848c-27.051,0-49.059,22.008-49.059,49.059v265.433c0,27.051,22.008,49.059,49.059,49.059h421.392c27.052,0,49.06-22.008,49.06-49.059v-265.433c0-27.051-22.008-49.059-49.06-49.059H241.11Z" fill="#fff"/>
  <path d="M450.486,783.767c-16.568,0-30-13.432-30-30v-113.369c0-16.568,13.432-30,30-30s30,13.432,30,30v113.369c0,16.568-13.432,30-30,30Z" fill="#fff"/>
  <path d="M528.68,783.767h-156.387c-16.568,0-30-13.432-30-30s13.432-30,30-30h156.387c16.568,0,30,13.432,30,30s-13.432,30-30,30Z" fill="#fff"/>
</svg>