<?xml version="1.0" encoding="UTF-8"?>
<svg id="layer1" xmlns="http://www.w3.org/2000/svg" width="1080" height="1080" viewBox="0 0 1080 1080">
  <path d="M598.722,339.393c-8.469-35.342-25.096-68.731-48.084-96.558-43.352-52.478-105.677-82.576-170.994-82.576s-127.642,30.098-170.995,82.576c-22.987,27.827-39.615,61.216-48.084,96.558-8.399,35.056-8.846,72.302-1.29,107.711l4.902,22.974c.206,2.922.603,5.862,1.231,8.807l18.359,86.033c.668,3.131,1.571,6.151,2.662,9.062.907,3.27,2.329,6.268,4.162,8.936,11.153,19.676,32.271,32.173,55.159,32.172,4.368,0,8.803-.456,13.243-1.403l7.982-1.703c34.185-7.295,56.062-41.042,48.767-75.228l-18.359-86.033c-7.295-34.187-41.046-56.06-75.229-48.768l-7.979,1.703c-.035.008-.07.018-.105.025-.694-16.929.92-33.939,4.842-50.308,6.35-26.5,18.796-51.509,35.993-72.326,31.914-38.632,77.379-60.789,124.737-60.789s92.823,22.157,124.736,60.789c17.197,20.817,29.645,45.827,35.994,72.326,3.931,16.405,5.544,33.454,4.839,50.421-.193-.043-.381-.097-.574-.138l-7.98-1.703c-34.191-7.297-67.933,14.582-75.228,48.768l-18.359,86.033c-3.525,16.524-.387,33.461,8.839,47.692,9.225,14.23,23.405,24.009,39.931,27.536l7.979,1.702c4.424.944,8.874,1.41,13.297,1.41,12.099,0,23.974-3.492,34.395-10.248,7.768-5.036,14.197-11.556,19.019-19.119,3.277-3.729,5.677-8.32,6.787-13.519l.639-2.994c.406-1.415.781-2.843,1.092-4.296l18.359-86.034c.311-1.455.549-2.907.755-4.358l5.852-27.422c7.556-35.41,7.109-72.656-1.291-107.711Z" fill="#fff"/>
  <g opacity=".35">
    <path d="M784.622,957.124h-160.907c-38.893,0-70.533-31.641-70.533-70.534v-217.477c0-16.568,13.432-30,30-30s30,13.432,30,30v217.477c0,5.71,4.823,10.534,10.533,10.534h160.907c5.71,0,10.533-4.824,10.533-10.534v-250.006c0-5.709-4.823-10.533-10.533-10.533h-140.446c-16.568,0-30-13.432-30-30s13.432-30,30-30h140.446c38.893,0,70.533,31.641,70.533,70.533v250.006c0,38.893-31.641,70.534-70.533,70.534Z" fill="#fff"/>
    <path d="M703.499,777.211c-38.472,0-69.771-31.299-69.771-69.771s31.3-69.772,69.771-69.772,69.771,31.3,69.771,69.772-31.3,69.771-69.771,69.771ZM703.499,665.667c-23.033,0-41.771,18.739-41.771,41.772s18.738,41.771,41.771,41.771,41.771-18.739,41.771-41.771-18.738-41.772-41.771-41.772Z" fill="#fff"/>
    <path d="M703.499,888.248c-25.732,0-46.668-20.935-46.668-46.668s20.936-46.667,46.668-46.667,46.667,20.935,46.667,46.667-20.935,46.668-46.667,46.668ZM703.499,822.912c-10.294,0-18.668,8.374-18.668,18.667s8.374,18.668,18.668,18.668,18.667-8.375,18.667-18.668-8.374-18.667-18.667-18.667Z" fill="#fff"/>
    <circle cx="703.499" cy="707.439" r="14.317" fill="#fff"/>
  </g>
  <path d="M329.499,936.394c-7.678,0-15.355-2.929-21.213-8.787-11.716-11.716-11.716-30.711,0-42.427L882.505,310.962c11.715-11.716,30.711-11.716,42.426,0,11.716,11.716,11.716,30.711,0,42.427L350.712,927.607c-5.857,5.858-13.535,8.787-21.213,8.787Z" fill="#fff"/>
</svg>