<?xml version="1.0" encoding="UTF-8"?>
<svg id="layer1" xmlns="http://www.w3.org/2000/svg" width="1080" height="1080" viewBox="0 0 1080 1080">
  <path d="M513.026,326.792c-6.339-26.45-18.785-51.441-35.993-72.273-32.513-39.355-79.301-61.927-128.367-61.927s-95.855,22.572-128.367,61.927c-17.209,20.831-29.655,45.823-35.994,72.272-6.283,26.221-6.617,54.078-.967,80.56l3.436,16.099c.184,2.262.5,4.526.981,6.781l13.218,61.94c.525,2.458,1.222,4.836,2.063,7.131.863,3.027,2.191,5.812,3.896,8.289,9.307,15.978,26.603,26.101,45.338,26.1,3.616,0,7.286-.377,10.96-1.161l5.747-1.226c13.678-2.92,25.416-11.012,33.049-22.786,7.633-11.775,10.229-25.793,7.31-39.471l-13.218-61.94c-5.875-27.53-32.481-45.408-59.975-40.786.561-27.548,10.2-54.073,27.982-75.598,21.675-26.238,52.489-41.286,84.542-41.286s62.867,15.048,84.542,41.286c17.796,21.541,27.436,48.09,27.983,75.66-13.057-2.287-26.313.403-37.531,7.676-11.774,7.633-19.866,19.371-22.785,33.049l-13.217,61.938c-2.92,13.679-.324,27.697,7.309,39.472,7.633,11.774,19.37,19.867,33.051,22.786l5.745,1.226c3.676.785,7.343,1.162,10.96,1.161,17.863,0,34.417-9.206,43.987-23.912,2.911-3.452,5.056-7.635,6.064-12.359l.411-1.929c.308-1.092.595-2.195.835-3.32l13.218-61.94c.24-1.125.428-2.248.593-3.37l4.163-19.509c5.65-26.482,5.316-54.339-.967-80.56Z" fill="#fff" opacity=".35"/>
  <path d="M192.62,797.731c-7.678,0-15.355-2.929-21.213-8.787-11.716-11.716-11.716-30.711,0-42.427L745.625,172.299c11.715-11.716,30.711-11.716,42.426,0,11.716,11.716,11.716,30.711,0,42.427L213.833,788.944c-5.857,5.858-13.535,8.787-21.213,8.787Z" fill="#fff"/>
  <g>
    <path d="M782.406,948.994h-224.855c-40.084,0-72.696-32.611-72.696-72.695v-286.996c0-17.113,13.873-30.985,30.985-30.985s30.985,13.873,30.985,30.985v286.996c0,5.813,4.911,10.724,10.725,10.724h224.855c5.814,0,10.725-4.911,10.725-10.724v-338.368c0-5.813-4.911-10.724-10.725-10.724h-188.858c-17.113,0-30.985-13.873-30.985-30.985s13.873-30.985,30.985-30.985h188.858c40.084,0,72.696,32.611,72.696,72.695v338.368c0,40.084-32.611,72.695-72.696,72.695Z" fill="#fff"/>
    <path d="M669.125,724.676c-47.722,0-86.547-38.824-86.547-86.546s38.825-86.546,86.547-86.546,86.546,38.824,86.546,86.546-38.825,86.546-86.546,86.546ZM669.125,582.57c-30.637,0-55.561,24.924-55.561,55.56s24.925,55.561,55.561,55.561,55.56-24.925,55.56-55.561-24.925-55.56-55.56-55.56Z" fill="#fff"/>
    <path d="M669.125,866.137c-31.491,0-57.111-25.62-57.111-57.111s25.621-57.111,57.111-57.111,57.111,25.62,57.111,57.111-25.621,57.111-57.111,57.111ZM669.125,782.899c-14.405,0-26.126,11.72-26.126,26.126s11.72,26.126,26.126,26.126,26.126-11.72,26.126-26.126-11.72-26.126-26.126-26.126Z" fill="#fff"/>
    <circle cx="669.125" cy="638.13" r="18.24" fill="#fff"/>
  </g>
</svg>