<?xml version="1.0" encoding="UTF-8"?>
<svg id="layer1" xmlns="http://www.w3.org/2000/svg" width="1080" height="1080" viewBox="0 0 1080 1080">
  <path d="M690.764,907.22h-298.888c-65.63,0-119.023-53.394-119.023-119.024v-474.504c0-65.63,53.394-119.023,119.023-119.023h298.888c65.63,0,119.024,53.394,119.024,119.023v474.504c0,65.63-53.395,119.024-119.024,119.024ZM391.876,254.668c-32.546,0-59.023,26.478-59.023,59.023v474.504c0,32.546,26.478,59.024,59.023,59.024h298.888c32.546,0,59.024-26.478,59.024-59.024v-474.504c0-32.546-26.479-59.023-59.024-59.023h-298.888Z" fill="#fff"/>
  <path d="M540,579.143c-74.398,0-134.927-60.528-134.927-134.927s60.528-134.927,134.927-134.927,134.927,60.528,134.927,134.927-60.528,134.927-134.927,134.927ZM540,359.289c-46.829,0-84.927,38.098-84.927,84.927s38.098,84.927,84.927,84.927,84.927-38.098,84.927-84.927-38.098-84.927-84.927-84.927Z" fill="#fff"/>
  <path d="M540,797.999c-49.289,0-89.389-40.1-89.389-89.389s40.1-89.389,89.389-89.389,89.389,40.1,89.389,89.389-40.1,89.389-89.389,89.389ZM540,669.221c-21.719,0-39.389,17.669-39.389,39.389s17.67,39.389,39.389,39.389,39.389-17.669,39.389-39.389-17.67-39.389-39.389-39.389Z" fill="#fff"/>
  <circle cx="540" cy="444.216" r="33.206" fill="#fff"/>
</svg>