<?xml version="1.0" encoding="UTF-8"?>
<svg id="layer1" xmlns="http://www.w3.org/2000/svg" width="1080" height="1080" viewBox="0 0 1080 1080">
  <path d="M534.23,848.454c-82.392,0-159.851-32.085-218.11-90.344-58.259-58.26-90.344-135.719-90.344-218.11s32.085-159.851,90.344-218.11c58.26-58.259,135.719-90.344,218.11-90.344s159.851,32.085,218.11,90.344c58.259,58.259,90.344,135.719,90.344,218.11s-32.085,159.851-90.344,218.11c-58.26,58.259-135.719,90.344-218.11,90.344ZM534.23,291.546c-66.364,0-128.757,25.844-175.684,72.771s-72.771,109.319-72.771,175.684,25.844,128.757,72.771,175.684,109.319,72.771,175.684,72.771,128.757-25.844,175.684-72.771,72.771-109.319,72.771-175.684-25.844-128.757-72.771-175.684-109.319-72.771-175.684-72.771Z" fill="#fff"/>
  <rect x="430.822" y="436.593" width="206.814" height="206.814" rx="30" ry="30" fill="#fff"/>
</svg>