<?xml version="1.0" encoding="UTF-8"?>
<svg id="text" xmlns="http://www.w3.org/2000/svg" width="1080" height="1080" viewBox="0 0 1080 1080">
  <path d="M795.227,949.874h-156.405c-12.3,0-22.272-9.972-22.272-22.272v-186.569c0-12.301,9.972-22.272,22.272-22.272h156.405c12.3,0,22.272,9.971,22.272,22.272v186.569c0,12.3-9.972,22.272-22.272,22.272ZM661.095,905.33h111.861v-142.025h-111.861v142.025Z" fill="#fff"/>
  <path d="M907.73,967.739h-89.946c-12.3,0-22.272-9.971-22.272-22.272v-86.781c0-12.3,9.972-22.272,22.272-22.272h89.946c12.301,0,22.272,9.972,22.272,22.272v86.781c0,12.301-9.971,22.272-22.272,22.272ZM840.056,923.195h45.402v-42.237h-45.402v42.237Z" fill="#fff"/>
  <path d="M662.502,670.398H241.111c-60.136,0-109.06-48.924-109.06-109.059v-265.433c0-60.136,48.924-109.06,109.06-109.06h421.392c60.135,0,109.059,48.924,109.059,109.06v265.433c0,60.135-48.924,109.059-109.059,109.059ZM241.111,246.847c-27.052,0-49.06,22.008-49.06,49.06v265.433c0,27.051,22.008,49.059,49.06,49.059h421.392c27.051,0,49.059-22.008,49.059-49.059v-265.433c0-27.052-22.008-49.06-49.059-49.06H241.111Z" fill="#fff"/>
  <path d="M450.487,783.767c-16.568,0-30-13.432-30-30v-113.369c0-16.568,13.432-30,30-30s30,13.432,30,30v113.369c0,16.568-13.432,30-30,30Z" fill="#fff"/>
  <path d="M528.68,783.767h-156.387c-16.568,0-30-13.432-30-30s13.432-30,30-30h156.387c16.568,0,30,13.432,30,30s-13.432,30-30,30Z" fill="#fff"/>
  <g>
    <path d="M779.28,388.038s-.002-.003-.004-.005c-13.65-18.792-33.729-28.725-58.062-28.725-9.754,0-18.784,1.666-26.993,4.969v-40.507c0-9.665-7.835-17.5-17.5-17.5h-38.601c-9.665,0-17.5,7.835-17.5,17.5v43.809c-3.181-3.279-7.626-5.324-12.555-5.324h-38.6c-9.665,0-17.5,7.835-17.5,17.5v103.458c-3.322,3.681-5.718,5.795-7.276,6.987-3.621,2.771-7.546,4.061-12.351,4.061-2.474,0-3.833-.304-4.449-.499-.348-.893-1.034-3.281-1.034-8.226v-105.781c0-9.665-7.835-17.5-17.5-17.5h-38.306c-9.665,0-17.5,7.835-17.5,17.5v64.956c-.824-1.393-1.701-2.74-2.636-4.037-7.459-10.337-16.811-17.957-27.796-22.649-.004,0-.008-.003-.012-.005-8.993-3.833-19.968-7.35-33.639-10.77-8.878-2.174-15.762-4.186-20.465-5.982-2.878-1.098-5.148-2.574-6.952-4.526-.715-.772-.792-2.864-.792-3.728,0-2.37.609-2.874,1.307-3.45.029-.023,3.109-2.327,14.784-2.327,7.263,0,15.142.83,23.411,2.465,8.161,1.618,17.162,4.56,26.753,8.745,5.409,2.359,11.646,1.835,16.585-1.398s7.914-8.739,7.914-14.642v-38.306c0-6.986-4.155-13.303-10.57-16.069-9.767-4.212-20.442-7.46-31.74-9.656-11.183-2.167-22.365-3.266-33.236-3.266-27.979,0-50.365,7.083-66.538,21.051-16.927,14.618-25.51,34.936-25.51,60.39,0,17.289,4.111,31.672,12.214,42.742,7.688,10.512,17.132,18.313,28.062,23.183,9.141,4.08,20.524,7.822,34.772,11.436,8.542,2.182,15.211,4.168,19.801,5.896,2.639.997,4.643,2.266,6.111,3.861.372.406.401,1.759.401,2.163,0,.831,0,.958-1.146,1.768-.164.116-4.18,2.831-19.365,2.831-8.297,0-16.668-.789-24.881-2.346-8.476-1.605-17.81-4.161-27.742-7.596-5.351-1.851-11.262-.998-15.872,2.285-4.609,3.284-7.347,8.595-7.347,14.254v38.895c0,7.728,5.068,14.54,12.47,16.762,10.617,3.187,21.696,5.607,32.927,7.195,11.169,1.581,21.611,2.383,31.035,2.383,29.238,0,52.604-6.711,69.448-19.945,9.376-7.367,16.34-16.313,20.899-26.737,2.708,10.775,7.476,19.96,14.295,27.427,11.664,12.776,27.711,19.255,47.694,19.255,15.68,0,30.09-4.09,42.92-12.17,2.978,5.546,8.824,9.224,15.422,9.224h31.528c7.055,0,13.119-4.183,15.888-10.197,2.434,3.363,6.041,5.86,10.325,6.824,8.409,1.893,17.755,3.436,27.785,4.586,10.068,1.15,19.56,1.733,28.211,1.733,34.698,0,61.649-9.294,80.106-27.627,18.482-18.364,27.854-44.4,27.854-77.386,0-28.598-6.377-51.884-18.955-69.212ZM718.792,432.118c1.314,2.081,4.37,8.811,4.37,26.311,0,12.826-1.856,19.792-3.414,23.378,0,.002,0,.003,0,.004-1.562,3.598-3.667,5.877-6.833,7.393-2.929,1.404-8.51,3.06-18.692,3.269v-31.98c0-18.47,3.388-25.356,4.844-27.46.888-1.283,2.736-3.953,10.362-3.953,7.444,0,8.841,2.211,9.364,3.04Z"/>
    <g>
      <path d="M416.245,434.119c-8.057-3.435-18.37-6.726-30.938-9.87-9.627-2.357-17.141-4.567-22.541-6.63-5.405-2.062-9.922-5.056-13.555-8.987-3.637-3.928-5.451-9.135-5.451-15.617,0-7.071,2.551-12.716,7.661-16.942,5.106-4.222,13.748-6.335,25.93-6.335,8.444,0,17.385.935,26.813,2.799,9.43,1.869,19.544,5.156,30.35,9.871v-38.306c-8.646-3.729-18.024-6.579-28.14-8.545-10.119-1.961-20.087-2.946-29.907-2.946-23.771,0-42.136,5.599-55.101,16.796-12.965,11.196-19.447,26.915-19.447,47.145,0,13.555,2.946,24.36,8.84,32.412,5.893,8.058,12.914,13.899,21.067,17.532,8.149,3.637,18.808,7.122,31.971,10.46,9.23,2.357,16.45,4.521,21.657,6.482,5.202,1.966,9.475,4.766,12.817,8.398,3.338,3.637,5.009,8.301,5.009,13.996,0,6.68-2.85,12.034-8.545,16.059-5.699,4.028-15.52,6.04-29.466,6.04-9.429,0-18.812-.884-28.14-2.651-9.332-1.769-19.401-4.517-30.202-8.251v38.895c9.82,2.947,19.936,5.157,30.35,6.63,10.41,1.474,19.936,2.21,28.582,2.21,25.34,0,44.884-5.4,58.637-16.206,13.747-10.801,20.626-26.123,20.626-45.966,0-13.356-2.8-23.913-8.398-31.676-5.598-7.758-12.426-13.356-20.479-16.796Z" fill="#cba6f7"/>
      <path d="M569.467,489.679c-5.253,6.421-9.969,11.229-14.144,14.422-6.681,5.11-14.342,7.661-22.983,7.661-8.058,0-13.899-2.062-17.532-6.188-3.637-4.125-5.451-10.801-5.451-20.036v-105.781h-38.306v112.853c0,16.699,4.126,29.567,12.376,38.601,8.25,9.037,19.839,13.554,34.77,13.554,13.945,0,26.418-4.023,37.421-12.081,6.125-4.484,11.732-10.038,16.822-16.655l4.099,25.79h31.528v-162.061h-38.6v109.923Z" fill="#cba6f7"/>
      <path d="M765.118,398.319c-10.414-14.336-25.046-21.51-43.903-21.51-11.396,0-21.216,2.851-29.466,8.545-5.922,4.091-10.928,9.503-15.027,16.222v-77.805h-38.601v215.1c7.854,1.768,16.501,3.19,25.93,4.272,9.43,1.077,18.168,1.62,26.225,1.62,30.055,0,52.643-7.514,67.771-22.541,15.124-15.027,22.688-36.685,22.688-64.972,0-24.944-5.207-44.59-15.617-58.932ZM735.8,488.779c-3.241,7.468-8.352,12.868-15.322,16.206-6.975,3.343-16.454,5.009-28.434,5.009-5.486,0-10.593-.342-15.322-1.022v-48.479c0-17.283,2.651-29.76,7.955-37.421s13.555-11.492,24.751-11.492c11.391,0,19.448,3.734,24.162,11.197,4.715,7.468,7.072,19.351,7.072,35.653,0,12.771-1.621,22.887-4.862,30.35Z" fill="#cba6f7"/>
    </g>
  </g>
</svg>