<?xml version="1.0" encoding="UTF-8"?>
<svg id="layer1" xmlns="http://www.w3.org/2000/svg" width="1080" height="1080" viewBox="0 0 1080 1080">
  <g>
    <path d="M723.965,909.597c-1.384,0-2.776-.17-4.151-.514-4.435-1.108-8.125-3.876-10.393-7.793-.037-.063-.073-.127-.109-.191-4.485-8.157-1.717-18.182,6.304-22.824l32.29-18.518-32.232-18.368c-.021-.012-.04-.023-.06-.035-8.019-4.643-10.786-14.668-6.302-22.823.036-.064.072-.128.109-.191,2.268-3.917,5.958-6.685,10.393-7.793,4.311-1.077,8.791-.449,12.621,1.771,9.207,5.221,27.749,15.793,44.144,25.141l10.708,6.105c.04.022.079.045.118.068,5.801,3.412,9.264,9.461,9.265,16.183,0,6.722-3.463,12.772-9.264,16.186-.056.032-.112.064-.169.097-9.485,5.335-22.588,12.828-34.148,19.439-8.286,4.738-15.806,9.038-20.707,11.809-2.594,1.49-5.484,2.253-8.416,2.253ZM722.49,829.668c.016.009.031.018.046.026-.016-.009-.03-.018-.046-.026Z" fill="#fff"/>
    <rect x="781.515" y="918.58" width="93.27" height="30.199" rx="10" ry="10" fill="#fff"/>
  </g>
  <path d="M662.502,670.398H241.111c-60.136,0-109.06-48.924-109.06-109.06v-265.433c0-60.135,48.924-109.059,109.06-109.059h421.392c60.135,0,109.059,48.924,109.059,109.059v265.433c0,60.136-48.924,109.06-109.059,109.06ZM241.111,246.847c-27.052,0-49.06,22.008-49.06,49.059v265.433c0,27.052,22.008,49.06,49.06,49.06h421.392c27.051,0,49.059-22.008,49.059-49.06v-265.433c0-27.051-22.008-49.059-49.059-49.059H241.111Z" fill="#fff"/>
  <path d="M450.487,783.766c-16.568,0-30-13.432-30-30v-113.368c0-16.568,13.432-30,30-30s30,13.432,30,30v113.368c0,16.568-13.432,30-30,30Z" fill="#fff"/>
  <path d="M528.68,783.766h-156.387c-16.568,0-30-13.432-30-30s13.432-30,30-30h156.387c16.568,0,30,13.432,30,30s-13.432,30-30,30Z" fill="#fff"/>
</svg>