<?xml version="1.0" encoding="UTF-8"?>
<svg id="layer1" xmlns="http://www.w3.org/2000/svg" width="1080" height="1080" viewBox="0 0 1080 1080">
  <path d="M876.804,942.923c-5.604,0-11.158-1.882-15.689-5.533l-98.504-79.373-30.685,24.701c-10.755,8.656-26.493,6.957-35.151-3.798-8.657-10.755-6.957-26.493,3.798-35.151l22.189-17.862-21.655-17.449c-10.752-8.663-12.444-24.401-3.781-35.152,8.664-10.751,24.403-12.442,35.152-3.781l30.148,24.293,98.497-79.291c7.496-6.033,17.79-7.232,26.473-3.074,8.68,4.155,14.204,12.925,14.204,22.549v183.923c0,9.626-5.526,18.397-14.21,22.552-3.434,1.643-7.121,2.448-10.786,2.448ZM802.475,825.926l49.325,39.746v-79.453l-49.325,39.707Z" fill="#fff"/>
  <path d="M662.502,670.398H241.11c-60.135,0-109.059-48.924-109.059-109.059v-265.433c0-60.135,48.924-109.059,109.059-109.059h421.392c60.136,0,109.06,48.924,109.06,109.059v265.433c0,60.135-48.924,109.059-109.06,109.059ZM241.11,246.848c-27.051,0-49.059,22.008-49.059,49.059v265.433c0,27.051,22.008,49.059,49.059,49.059h421.392c27.052,0,49.06-22.008,49.06-49.059v-265.433c0-27.051-22.008-49.059-49.06-49.059H241.11Z" fill="#fff"/>
  <path d="M450.486,783.767c-16.568,0-30-13.432-30-30v-113.369c0-16.568,13.432-30,30-30s30,13.432,30,30v113.369c0,16.568-13.432,30-30,30Z" fill="#fff"/>
  <path d="M528.68,783.767h-156.387c-16.568,0-30-13.432-30-30s13.432-30,30-30h156.387c16.568,0,30,13.432,30,30s-13.432,30-30,30Z" fill="#fff"/>
</svg>